<svg xmlns="http://www.w3.org/2000/svg" xmlns:xlink="http://www.w3.org/1999/xlink" width="104" height="35" viewBox="0 0 104 35">
  <defs>
    <clipPath id="clip-path">
      <rect id="Rectangle_401" data-name="Rectangle 401" width="104" height="35" fill="#efefef"/>
    </clipPath>
  </defs>
  <g id="Frame" clip-path="url(#clip-path)">
    <path id="Vector" d="M28.357,32.506V12.748h7.632a10.841,10.841,0,0,1,3.212.4,4.37,4.37,0,0,1,2.209,1.694,5.02,5.02,0,0,1,.932,3.028,4.47,4.47,0,0,1-.945,2.843,4.264,4.264,0,0,1-2.611,1.542,4.7,4.7,0,0,1,4.189,4.849,5.353,5.353,0,0,1-1.485,3.845,6.038,6.038,0,0,1-4.569,1.555ZM31.7,21.043H36a2.658,2.658,0,0,0,2.057-.764,2.709,2.709,0,0,0,.8-2.061,2.323,2.323,0,0,0-.874-2,3.369,3.369,0,0,0-2.051-.644H31.692Zm0,8.5H36.26a3.278,3.278,0,0,0,2.287-.761,2.921,2.921,0,0,0-.013-4.114,3.184,3.184,0,0,0-2.262-.794H31.692Z" transform="translate(-4.483 -2.384)" fill="#efefef"/>
    <path id="Vector_2" d="M51.184,16.177H47.917V12.748h3.267Zm0,16.332H47.917V17.886h3.267Z" transform="translate(-7.575 -2.384)" fill="#efefef"/>
    <path id="Vector_3" d="M60.549,33.718a5.692,5.692,0,0,1-4.908-2.331,8.848,8.848,0,0,1-1.691-5.341,7.945,7.945,0,0,1,1.872-5.4,6.221,6.221,0,0,1,4.941-2.158,6.124,6.124,0,0,1,4.775,2.1,7.893,7.893,0,0,1,1.872,5.458,7.936,7.936,0,0,1-1.943,5.579,6.423,6.423,0,0,1-4.928,2.1Zm.1-2.709q3.3,0,3.3-4.966a6.775,6.775,0,0,0-.789-3.538,2.647,2.647,0,0,0-2.423-1.3,2.743,2.743,0,0,0-2.513,1.339A6.732,6.732,0,0,0,57.41,26.1a6.393,6.393,0,0,0,.87,3.647,2.744,2.744,0,0,0,1.021.948,2.715,2.715,0,0,0,1.351.32" transform="translate(-8.528 -3.292)" fill="#efefef"/>
    <path id="Vector_4" d="M97.843,28.755l2.956.406a6.225,6.225,0,0,1-2.237,3.272,6.6,6.6,0,0,1-4.174,1.288,6.224,6.224,0,0,1-4.85-2.029A7.937,7.937,0,0,1,87.7,26.163a8.162,8.162,0,0,1,1.85-5.486A6.266,6.266,0,0,1,94.579,18.5a5.748,5.748,0,0,1,4.79,2.143,8.619,8.619,0,0,1,1.7,5.488l-.015.378H91.1a8.266,8.266,0,0,0,.281,2.386,3.416,3.416,0,0,0,6.459-.145Zm-.2-4.36a3.684,3.684,0,0,0-.937-2.577,3.153,3.153,0,0,0-4.541-.066A4.245,4.245,0,0,0,91.1,24.4Z" transform="translate(-13.864 -3.294)" fill="#efefef"/>
    <path id="Vector_5" d="M117.707,33.413H114.44v-9.13a3.168,3.168,0,0,0-.658-2.178,2.069,2.069,0,0,0-1.594-.73,2.867,2.867,0,0,0-2.236,1.129,5.191,5.191,0,0,0-.967,3.411v7.512h-3.267V18.793h2.973v3.388q1.566-3.69,4.391-3.693a4.711,4.711,0,0,1,3.267,1.217q1.356,1.212,1.356,4.268Z" transform="translate(-16.712 -3.292)" fill="#efefef"/>
    <path id="Vector_6" d="M83.808,30.824a4.942,4.942,0,0,0-3.478-1.156H76.008a2.118,2.118,0,0,1-1.483-.451,1.331,1.331,0,0,1-.49-.989,1.516,1.516,0,0,1,1.005-1.438,11.563,11.563,0,0,0,2.694.378A6.754,6.754,0,0,0,82.019,25.9a3.937,3.937,0,0,0,1.623-3.226,3.657,3.657,0,0,0-.97-2.435l2.088-.185-.467-2.823-3.948,1.339H80.33a13.29,13.29,0,0,0-2.81-.307,6.735,6.735,0,0,0-4.508,1.293,4,4,0,0,0-1.483,3.117,3.815,3.815,0,0,0,2.01,3.4q-2.317,1.134-2.32,3.043a3.251,3.251,0,0,0,1.355,2.427,3.21,3.21,0,0,0-2.119,2.98q0,3.969,7.037,3.969a9.683,9.683,0,0,0,5.654-1.367,4.1,4.1,0,0,0,1.91-3.444,3.739,3.739,0,0,0-1.249-2.861Zm-8.167-9.777a2.745,2.745,0,0,1,2.01-.7,2.6,2.6,0,0,1,1.95.67,2.232,2.232,0,0,1,.671,1.656q0,2.536-2.679,2.536a2.729,2.729,0,0,1-1.96-.67,2.293,2.293,0,0,1-.7-1.745,2.334,2.334,0,0,1,.711-1.747Zm2.6,15.191a7.2,7.2,0,0,1-3.77-.761A2.116,2.116,0,0,1,73.286,33.7a1.825,1.825,0,0,1,.706-1.268,9.466,9.466,0,0,0,2.362.363H79.84a3.064,3.064,0,0,1,1.508.37,1.18,1.18,0,0,1,.492.451,1.2,1.2,0,0,1,.172.648Q82.006,36.238,78.237,36.238Z" transform="translate(-11.138 -3.093)" fill="#efefef"/>
    <path id="Vector_7" d="M13.958,14.977c-.251.216-.427.342-.427.342a23.418,23.418,0,0,1-6.667,3.234l-.6.17a9.183,9.183,0,0,0,13.958-1.129C18.55,18.195,16.218,16.967,13.958,14.977Z" transform="translate(-0.991 -2.737)" fill="#efefef"/>
    <path id="Vector_8" d="M23.427,10.143V9.976q-.015-.2-.038-.4l-.023-.17c-.02-.152-.045-.3-.073-.454a.166.166,0,0,0-.018-.089c-.035-.18-.078-.358-.123-.535a.446.446,0,0,0-.035-.122c-.035-.134-.075-.269-.121-.4-.015-.053-.035-.107-.053-.16-.043-.127-.088-.254-.138-.373l-.053-.139c-.068-.16-.136-.32-.211-.474-.023-.051-.05-.1-.075-.15-.05-.1-.1-.2-.158-.3-.015-.03-.033-.058-.048-.086-.782,1.565-2.97,2.929-5.6,3.944a3.76,3.76,0,0,1,0,1.763,4.2,4.2,0,0,1-1.257,1.752c2.262,1.991,4.591,3.218,6.27,2.617a9.347,9.347,0,0,0,.864-1.435c.02-.04.038-.084.058-.127l.113-.254c.033-.079.063-.16.1-.241s.038-.1.058-.147c.035-.094.068-.19.1-.287A.444.444,0,0,1,23,13.6q.053-.16.1-.32a.1.1,0,0,1,.018-.071,8.833,8.833,0,0,0,.251-1.184v-.084c.02-.165.038-.332.05-.507v-.142c0-.2.023-.393.023-.593S23.44,10.331,23.427,10.143Z" transform="translate(-2.435 -1.336)" fill="#efefef"/>
    <path id="Vector_9" d="M21.255,4.743c-.058-.091-.121-.183-.183-.271-.1-.15-.211-.3-.324-.439l-.128-.165c-.088-.1-.176-.208-.266-.309l-.02-.015A9.181,9.181,0,0,0,10.979.858c.5.558.88,1,.88,1a24.012,24.012,0,0,1,3.83,6.388,5.845,5.845,0,0,1,.274.931c2.629-1.014,4.818-2.379,5.587-3.944Q21.41,4.984,21.255,4.743Z" transform="translate(-1.736 -0.449)" fill="#efefef"/>
    <path id="Vector_10" d="M14.7,9.241a5.844,5.844,0,0,0-.274-.931A24.012,24.012,0,0,0,10.6,1.921s-.382-.439-.88-1c-.111.033-.221.066-.329.1l-.048.015c-.108.036-.214.074-.319.114l-.033.013a8.98,8.98,0,0,0-.975.444H8l-.236.137-.133.084-.2.122-.148.094L7.1,2.17l-.171.119L6.778,2.4l-.221.17-.093.074c-.106.086-.209.172-.309.254l-.065.058-.236.223-.03.028a9.365,9.365,0,0,0-2.445,9.234v.015a9.388,9.388,0,0,0,.668,1.7l.028.053c.048.094.1.188.153.282,0,.02.025.043.038.066.053.091.106.183.161.274l.02.03a9.039,9.039,0,0,0,.568.8c.025.036.05.068.078.1s.106.129.161.193l.106.122.156.175.128.132.111.117.593-.17A23.461,23.461,0,0,0,13.018,13.1s.181-.127.427-.342A4.034,4.034,0,0,0,14.7,11,3.759,3.759,0,0,0,14.7,9.241Z" transform="translate(-0.478 -0.515)" fill="#efefef"/>
    <path id="Vector_11" d="M5.858.913a10.988,10.988,0,0,0-5.5,6.211,10.941,10.941,0,0,0,1.257,8.2A23.661,23.661,0,0,0,8.275,12.09,4.809,4.809,0,0,0,9.969,9.995a4.879,4.879,0,0,0-.284-2.688A23.866,23.866,0,0,0,5.858.913Z" transform="translate(0 -0.514)" fill="#efefef"/>
    <path id="Vector_12" d="M122.891,34.307a.806.806,0,0,1,.45.136.818.818,0,0,1-.29,1.481.8.8,0,0,1-.467-.046.812.812,0,0,1-.364-.3.823.823,0,0,1,.1-1.031A.806.806,0,0,1,122.891,34.307Zm0,1.486a.659.659,0,0,0,.37-.112.668.668,0,0,0,.247-.3.675.675,0,0,0-.144-.734.663.663,0,0,0-1.025.1.678.678,0,0,0,.083.847A.664.664,0,0,0,122.891,35.793Zm-.158-.236h-.184v-.872h.4c.051,0,.33,0,.33.254a.242.242,0,0,1-.042.144.231.231,0,0,1-.12.089l.162.378h-.191l-.143-.347h-.211Zm0-.492h.191c.062,0,.166-.018.166-.122,0-.053-.035-.117-.148-.117h-.209Z" transform="translate(-19.3 -5.793)" fill="#efefef"/>
  </g>
</svg>
