<svg xmlns="http://www.w3.org/2000/svg" width="230.819" height="41.86" viewBox="0 0 230.819 41.86">
  <g id="_--Symbols" data-name="--Symbols" transform="translate(0 0)">
    <g id="Footer-1440" transform="translate(0)">
      <g id="Logo">
        <path id="Fill-1" d="M83.753,21.821a.548.548,0,0,1,.583-.583c.549,0,1.379.583,1.847,1.75-.168,0-.42.051-.589.051C84.593,23.038,83.753,22.563,83.753,21.821Zm-60.515,0a.544.544,0,0,1,.586-.583c.536,0,1.331.583,1.793,1.75C24.072,22.988,23.238,22.654,23.238,21.821ZM34.91,15.794c0-6.24,1.216-7.2,1.593-7.2.671,0,.751.419.751,2.811A14.32,14.32,0,0,1,34.91,18.85ZM77.4,21.946a7.219,7.219,0,0,0-1.3,4.264c0,3.516,2.005,6.872,5.9,6.872,3.767,0,6.406-2.976,6.406-7.126a8.665,8.665,0,0,0-.125-1.871A10.244,10.244,0,0,0,90.5,22.654a2.282,2.282,0,0,1,1.173-.588c.375,0,.54.294.54.837v8.211c0,1.337.423,1.968,1.465,1.968a2.277,2.277,0,0,0,2.01-1.468c1.385-2.888,3.39-6.738,4.266-8.2.211-.335.382-.592.5-.592.168,0,.254.128.254.669v6.537c0,1.839.84,3.055,2.674,3.055,1.93,0,2.887-1.848,4.573-4.693a.962.962,0,0,0,.115-.414.615.615,0,0,0-.663-.591c-.38,0-.589.38-1.842,1.757-.254.262-.5.625-.965.625-.166,0-.294-.2-.294-.457V21.981c0-1.968-.88-2.762-2.01-2.762a2.832,2.832,0,0,0-2.47,1.55,72.872,72.872,0,0,0-3.681,6.571c-.089.175-.209.425-.291.425s-.125-.129-.125-.425V21.981c0-1.545-.419-2.762-2.054-2.762-1.717,0-2.594,1.174-3.85,2.051a12,12,0,0,1-2.047,1.257c-.842-2.134-2.388-3.216-3.685-3.184a2.107,2.107,0,0,0-2.222,2.185,2.881,2.881,0,0,0,1.967,2.758,5.172,5.172,0,0,0,2.054.3,2.709,2.709,0,0,0,.663-.048,7.969,7.969,0,0,1,.049,1.47c0,2.054-1.214,4.1-3.472,4.1-2.35,0-3.725-2.261-3.725-4.853a7.219,7.219,0,0,1,1.539-4.726c.386-.422.674-.677.674-1.063,0-.2-.288-.245-.542-.245a10.757,10.757,0,0,0-4.558,1.339,27.328,27.328,0,0,0-5.029,3.605c-.752-1.679-1.673-3.144-2.136-4.278-.166-.46-.288-.994-.623-.994-.3,0-.426.292-.631.869a52.1,52.1,0,0,1-5.65,9.593c-.083.12-.2.252-.245.252-.091,0-.138-.042-.138-.3V21.981c0-1.968-.794-2.762-1.874-2.762a2.782,2.782,0,0,0-2.47,1.55c-1.379,2.1-3.061,5.153-3.853,6.657-.128.259-.254.339-.3.339s-.075-.166-.075-.425V21.981c0-1.968-.8-2.762-1.888-2.762a2.742,2.742,0,0,0-2.513,1.55c-1.754,2.976-4.683,7.539-5.227,8.286a.69.69,0,0,1-.252.254c-.083,0-.131-.082-.131-.289V21.981c0-1.968-.794-2.762-1.876-2.762-1.51,0-2.342,1.388-2.891,2.262-.757,1.214-1.757,2.85-2.55,4.359a7.267,7.267,0,0,1-1.179,1.923c-.08,0-.08-.38-.08-1.089V21.067A15.656,15.656,0,0,0,39.177,10.6c0-2.265-1-3.515-2.545-3.515-2.894,0-5.107,4.523-5.107,9.876v4.353a11.491,11.491,0,0,1-4.15,1.551c-.793-2.339-2.47-3.555-3.8-3.522a2.109,2.109,0,0,0-2.219,2.185c0,2.216,2.177,3.136,4.1,3.136h.545a7.215,7.215,0,0,1,.082,1.342c0,2.054-1.213,4.1-3.467,4.1-2.342,0-3.727-2.261-3.727-4.853a7.179,7.179,0,0,1,1.543-4.726,2.194,2.194,0,0,0,.676-1.063c0-.2-.3-.245-.549-.245-1.59,0-5.1,2.144-9.29,6.329a90.538,90.538,0,0,1-.792-9.8A36.528,36.528,0,0,1,11.34,8.3a8.5,8.5,0,0,0,.137-1.126c0-.337-.179-.509-.629-.509C7.453,6.664,0,12.067,0,20.145,0,25.874,2.1,28.64,5.734,32.2c-2.207,3.559-3.976,7.785-3.976,11.553,0,2.716.634,4.773,2.638,4.773,4.187,0,7.323-8.7,7.323-15.153,0-1.924-.077-3.852-.242-5.774a28.02,28.02,0,0,1,4.512-4.062,10.017,10.017,0,0,0-.417,2.674c0,3.516,2.013,6.872,5.9,6.872,3.647,0,6.4-2.976,6.4-7.126,0-.536-.043-1-.08-1.5a10.933,10.933,0,0,0,3.727-1.294v8.413a1.392,1.392,0,0,0,1.46,1.51c.968,0,1.47-.674,2.174-2.214.592-1.262,2.177-4.147,3.139-5.869.759-1.343,1.177-2.216,1.514-2.216.078,0,.168.2.168.708v7.16c0,1.927,1,2.431,1.874,2.431a2.325,2.325,0,0,0,1.93-1.216c2.179-3.1,4.484-6.78,5.4-8.376.169-.286.377-.5.546-.5s.248.091.248.628v7.5c0,1.337.419,1.968,1.47,1.968A2.21,2.21,0,0,0,53.4,31.614c1.391-2.888,3.436-6.7,4.319-8.2.2-.335.415-.631.54-.631.174,0,.212.2.212.752v7.115c0,1.927,1,2.431,1.89,2.431,1.162,0,1.924-.842,2.676-1.8,1.373-1.808,3.384-5.018,4.6-7.078A18.079,18.079,0,0,1,68.9,26.55c-1.006,1.214-2.013,2.591-2.013,4.055a2.3,2.3,0,0,0,2.219,2.477c1.922,0,3.678-1.848,3.678-4.4a8.966,8.966,0,0,0-.662-3.053c1.707-1.679,3.761-3.312,5.275-3.687ZM8.453,31.071a44.015,44.015,0,0,1,.632,6.111c0,4.012-1.336,8.7-3.639,8.663-.889,0-1.637-.889-1.674-2.43-.085-5.018,2.3-9.29,4.681-12.344Zm61.11-2.853a5.577,5.577,0,0,1,.382,1.888c0,.671-.252,1.342-.716,1.342-.329,0-.665-.377-.665-.965A4.955,4.955,0,0,1,69.563,28.218ZM9.964,8.255c0,.255-.586,1.423-1.337,3.519a26.338,26.338,0,0,0-1.554,8.994,60.649,60.649,0,0,0,1.013,8.123L6.745,30.7C4.608,28.1,3.27,25.171,3.27,20.145,3.27,13.032,7.581,8.1,9.795,8.1c.132,0,.169.037.169.158Z" transform="translate(-0.002 -6.664)" fill="#efefef" fill-rule="evenodd"/>
        <path id="Fill-4" d="M571.372,21.821a.541.541,0,0,1,.583-.583c.54,0,1.379.583,1.837,1.75-.163,0-.414.051-.589.051C572.207,23.038,571.372,22.563,571.372,21.821Zm-60.527,0a.547.547,0,0,1,.586-.583c.545,0,1.348.583,1.8,1.75C511.682,22.988,510.845,22.654,510.845,21.821Zm11.679-6.027c0-6.24,1.208-7.2,1.59-7.2.668,0,.753.419.753,2.811a14.347,14.347,0,0,1-2.342,7.443ZM496.074,31.071a46.2,46.2,0,0,1,.629,6.111c0,4.012-1.337,8.7-3.645,8.663-.877,0-1.631-.889-1.673-2.43-.086-5.018,2.3-9.29,4.689-12.344Zm61.109-2.853a5.552,5.552,0,0,1,.374,1.888c0,.671-.251,1.342-.711,1.342-.331,0-.676-.377-.676-.965A4.923,4.923,0,0,1,557.183,28.218ZM497.573,8.255c0,.255-.58,1.423-1.339,3.519a26.5,26.5,0,0,0-1.548,8.994,61.73,61.73,0,0,0,1.016,8.123L494.358,30.7c-2.131-2.6-3.478-5.527-3.478-10.553,0-7.114,4.319-12.049,6.534-12.049.122,0,.159.037.159.158Zm-6.979,20.929a24.962,24.962,0,0,0,2.759,3.013c-2.221,3.559-3.976,7.785-3.976,11.553,0,2.716.632,4.773,2.642,4.773,4.181,0,7.317-8.7,7.317-15.153,0-1.924-.082-3.852-.249-5.774a27.765,27.765,0,0,1,4.523-4.062,9.912,9.912,0,0,0-.426,2.674c0,3.516,2.011,6.872,5.907,6.872,3.638,0,6.4-2.976,6.4-7.126,0-.536-.038-1-.085-1.5a10.851,10.851,0,0,0,3.729-1.294v8.413a1.391,1.391,0,0,0,1.456,1.51c.976,0,1.477-.674,2.185-2.214.583-1.262,2.177-4.147,3.142-5.869.751-1.343,1.169-2.216,1.513-2.216.079,0,.157.2.157.708v7.16c0,1.927,1,2.431,1.882,2.431a2.342,2.342,0,0,0,1.934-1.216c2.17-3.1,4.475-6.78,5.393-8.376.168-.286.38-.5.542-.5s.255.091.255.628v7.5c0,1.337.414,1.968,1.459,1.968a2.229,2.229,0,0,0,1.971-1.468c1.382-2.888,3.431-6.7,4.307-8.2.214-.335.422-.631.552-.631.163,0,.209.2.209.752v7.115c0,1.927,1,2.431,1.873,2.431,1.18,0,1.934-.842,2.682-1.8,1.38-1.808,3.395-5.018,4.607-7.078a18.655,18.655,0,0,1,1.26,2.347c-1.016,1.214-2.01,2.591-2.01,4.055a2.3,2.3,0,0,0,2.214,2.477c1.922,0,3.678-1.848,3.678-4.4a8.9,8.9,0,0,0-.668-3.053c1.714-1.679,3.767-3.312,5.273-3.687a7.284,7.284,0,0,0-1.3,4.264c0,3.516,2.011,6.872,5.9,6.872,3.767,0,6.4-2.976,6.4-7.126a8.862,8.862,0,0,0-.117-1.871,10.529,10.529,0,0,0,2.221-1.431,2.268,2.268,0,0,1,1.163-.588c.379,0,.555.294.555.837v8.211c0,1.337.412,1.968,1.459,1.968a2.286,2.286,0,0,0,2.011-1.468c1.373-2.888,3.385-6.738,4.261-8.2.209-.335.38-.592.506-.592.171,0,.252.128.252.669v6.537c0,1.839.829,3.055,2.676,3.055,1.931,0,2.891-1.848,4.569-4.693a1,1,0,0,0,.118-.414.622.622,0,0,0-.668-.591c-.374,0-.588.38-1.84,1.757-.248.262-.5.625-.962.625-.172,0-.291-.2-.291-.457V21.981c0-1.968-.889-2.762-2.019-2.762a2.833,2.833,0,0,0-2.464,1.55,71.221,71.221,0,0,0-3.676,6.571c-.091.175-.212.425-.3.425s-.122-.129-.122-.425V21.981c0-1.545-.419-2.762-2.051-2.762-1.72,0-2.594,1.174-3.849,2.051a12.03,12.03,0,0,1-2.059,1.257c-.829-2.134-2.384-3.216-3.675-3.184a2.1,2.1,0,0,0-2.217,2.185,2.879,2.879,0,0,0,1.957,2.758,5.215,5.215,0,0,0,2.063.3,2.841,2.841,0,0,0,.666-.048,8.739,8.739,0,0,1,.039,1.47c0,2.054-1.217,4.1-3.479,4.1-2.342,0-3.718-2.261-3.718-4.853a7.2,7.2,0,0,1,1.54-4.726c.382-.422.677-.677.677-1.063,0-.2-.3-.245-.546-.245a10.83,10.83,0,0,0-4.561,1.339,27.225,27.225,0,0,0-5.02,3.605c-.755-1.679-1.671-3.144-2.137-4.278-.172-.46-.286-.994-.634-.994-.289,0-.417.292-.623.869a52.362,52.362,0,0,1-5.649,9.593c-.085.12-.209.252-.254.252-.078,0-.125-.042-.125-.3V21.981c0-1.968-.789-2.762-1.888-2.762a2.791,2.791,0,0,0-2.467,1.55c-1.383,2.1-3.053,5.153-3.849,6.657-.123.259-.246.339-.286.339s-.091-.166-.091-.425V21.981c0-1.968-.789-2.762-1.879-2.762a2.731,2.731,0,0,0-2.513,1.55c-1.763,2.976-4.689,7.539-5.237,8.286a.585.585,0,0,1-.252.254c-.074,0-.123-.082-.123-.289V21.981c0-1.968-.792-2.762-1.885-2.762-1.511,0-2.342,1.388-2.89,2.262-.753,1.214-1.751,2.85-2.55,4.359a7.228,7.228,0,0,1-1.169,1.924c-.085,0-.085-.38-.085-1.089V21.067A15.62,15.62,0,0,0,526.79,10.6c0-2.265-1-3.515-2.556-3.515-2.884,0-5.1,4.523-5.1,9.876v4.353a11.5,11.5,0,0,1-4.15,1.551c-.789-2.339-2.465-3.555-3.8-3.522a2.106,2.106,0,0,0-2.224,2.185c0,2.216,2.17,3.136,4.1,3.136h.548a7.645,7.645,0,0,1,.077,1.342c0,2.054-1.209,4.1-3.472,4.1-2.345,0-3.719-2.261-3.719-4.853a7.22,7.22,0,0,1,1.54-4.726,2.212,2.212,0,0,0,.671-1.063c0-.2-.3-.245-.543-.245-1.593,0-5.106,2.144-9.3,6.329a91.308,91.308,0,0,1-.791-9.8,36.334,36.334,0,0,1,.879-7.448,8.4,8.4,0,0,0,.129-1.126c0-.337-.171-.509-.623-.509-3.391,0-10.842,5.4-10.842,13.481a13.978,13.978,0,0,0,1.967,7.7,6.366,6.366,0,0,0-1.179-.082,15.357,15.357,0,0,0-3.376.5v-.842c0-1.793-.425-4.266-1.18-5.1a.476.476,0,0,0-.331-.123,2.71,2.71,0,0,0-1.216.415c-.508.252-1.009.506-1.009.669a.612.612,0,0,0,.126.372,6.235,6.235,0,0,1,1.38,3.231,6.833,6.833,0,0,0-5.178-2.057c-2.516,0-3.273,1.126-3.273,2.264,0,2.176,2.888,3.264,6.535,3.264a10.112,10.112,0,0,0,2.168-.3c0,.671.085,1.265.085,1.763,0,.712.122,1.259.588,1.259.709,0,1.131-1.43,1.211-3.476a15.978,15.978,0,0,1,3.773-.626,10.347,10.347,0,0,1,1.882.2Zm-8.245-.419a13.932,13.932,0,0,1-1.88.083c-1.637,0-2.844-.631-2.844-1.543,0-.585.289-.925,1.126-.925,1.342,0,2.424.925,3.6,2.385Z" transform="translate(-364.863 -6.664)" fill="#efefef" fill-rule="evenodd"/>
      </g>
    </g>
  </g>
</svg>
