<svg id="Eli_Lilly_and_Company" xmlns="http://www.w3.org/2000/svg" xmlns:xlink="http://www.w3.org/1999/xlink" width="77.229" height="42.096" viewBox="0 0 77.229 42.096">
  <defs>
    <clipPath id="clip-path">
      <path id="Path_29950" data-name="Path 29950" d="M0,0H77.231V42.1H0Z" transform="translate(-0.002)" fill="#efefef"/>
    </clipPath>
  </defs>
  <g id="Group_2861" data-name="Group 2861" transform="translate(0)" clip-path="url(#clip-path)">
    <path id="Path_29949" data-name="Path 29949" d="M53.3,24.574c.447-.319.931-.691,1.383-1.046,3.476-2.781,6.131-5.83,6.658-7.516a1.353,1.353,0,0,0,.062-.335c0-.174-.083-.3-.241-.3-1.6,0-6.716,5.1-7.955,9.226v.015ZM40.47,23.987c4.84-3.656,9.925-8.98,10.468-11.165a.886.886,0,0,0,.03-.207.257.257,0,0,0-.268-.273c-1.532,0-8.625,6.542-10.23,11.645M10.752,27.2a9.55,9.55,0,0,0-5.02-1.661c-1.712,0-2.809.673-2.809,1.522,0,.974,1.329,1.4,2.818,1.4A11.172,11.172,0,0,0,10.752,27.2M25.578,15.732A24.358,24.358,0,0,0,34.8,9.865c2.268-2.247,4.084-4.916,4.084-6.237a.463.463,0,0,0-.49-.483c-1.049,0-3.042,1.394-5.725,4.08a71.234,71.234,0,0,0-7.086,8.508M77.23,24.121C74.25,27.087,64.964,35.238,62.506,42.1l-3.044-.785c1-2.841,3.991-7.259,7.33-10.667a5.969,5.969,0,0,1-2.046.367,2.524,2.524,0,0,1-2.025-.783,2.183,2.183,0,0,1-.456-1.42,3.127,3.127,0,0,1,.026-.39C59.359,30.2,57,31.01,54.692,31.01a4.314,4.314,0,0,1-4.012-2.157,18.645,18.645,0,0,1-8.035,2.157,5.021,5.021,0,0,1-4.727-2.427A15.928,15.928,0,0,1,30.48,31.01a3.57,3.57,0,0,1-2.639-.92,2.6,2.6,0,0,1-.689-1.729,14.338,14.338,0,0,1-7.468,2.649,10.966,10.966,0,0,1-6.333-1.976A15.968,15.968,0,0,1,5.519,31.01c-2.11,0-5.513-.878-5.513-3.9,0-2.442,2.543-4.1,5.953-4.1A13.355,13.355,0,0,1,13.4,25.5a34.933,34.933,0,0,0,5.467-5.8c-.453.026-.9.038-1.33.038-3.942,0-7.234-1.162-9.032-3.2a5.575,5.575,0,0,1-1.431-3.778C7.077,7.283,14,3.028,20.065,2.4c.4.908.757,1.608,1.127,2.439-5.986.7-10.973,4.239-10.973,7.7,0,2.276,2.558,4.563,7.989,4.563a20.552,20.552,0,0,0,2.784-.216C25.786,10.274,33.13,0,39.452,0A2.561,2.561,0,0,1,42.3,2.658c0,3.128-2.691,6.5-4.444,8.253a28.975,28.975,0,0,1-14.693,8.248,40.66,40.66,0,0,1-7.156,8.065A8.376,8.376,0,0,0,20.127,28.4c3.745,0,7.378-3.427,10.214-6.333l.1-.1L32.653,23.7l-.1.122c-1.254,1.438-2.41,2.958-2.41,3.81,0,.646.547.773,1.016.773,1.433,0,3.645-.929,6.246-2.527v-.022C37.69,19.426,46.462,9.6,51.787,9.6c1.5,0,2.366.749,2.366,2.06,0,3.222-5.558,10.13-13.644,15.417v0c.418.9,1.381,1.333,3.016,1.333a16.484,16.484,0,0,0,6.736-2.118,17.3,17.3,0,0,1,4.624-9.455c2.4-2.552,5.093-4.21,7.42-4.21a2,2,0,0,1,2.282,2.03c0,2.81-3.263,7.616-11.124,12.647a2.144,2.144,0,0,0,2.073,1.1c2.342,0,6.467-2.5,9.679-5.57l2.307,1.79c-.985,1.2-1.982,2.509-1.95,3.264.009.245.174.411.561.411,2.368,0,6.1-3.127,8.89-5.886l2.205,1.709M34.369,17.675a1.893,1.893,0,1,1-1.9,1.893,1.891,1.891,0,0,1,1.9-1.893" transform="translate(-0.002)" fill="#efefef"/>
  </g>
</svg>
