<svg id="logo_2_" data-name="logo (2)" xmlns="http://www.w3.org/2000/svg" width="155.32" height="23.4" viewBox="0 0 155.32 23.4">
  <path id="Path_29951" data-name="Path 29951" d="M191.858,54.245l.372,4.026h-.722l-1.138-2.757h-3.786V69.256l2.276.525v.81h-7.177v-.81l2.276-.525V55.514h-3.786l-1.138,2.757h-.722l.372-4.026h13.173ZM159.953,69.782v.81h-7v-.81l2.276-.5-1.554-4.267H147.59l-1.6,4.311,2.057.46v.81H142.71v-.81l1.947-.547.066-.2,5.558-14.793,1.9-.481,5.821,15.471Zm-6.74-6.04-2.56-6.981-2.582,6.981Zm53.157,6.324a11.736,11.736,0,0,0,4.683,1.028c3.523,0,6.04-1.926,6.04-4.661,0-2.166-1.007-3.457-3.873-4.967l-1.926-1.007c-1.86-.985-2.626-1.816-2.626-3.129,0-1.6,1.313-2.516,3.151-2.516a5.729,5.729,0,0,1,2.254.481l1.335,2.867h.7l-.394-3.808a14.031,14.031,0,0,0-3.829-.613c-3.348,0-5.427,1.685-5.427,4.42,0,1.838,1.269,3.392,3.873,4.748l1.641.853c1.86.963,2.648,1.969,2.648,3.348,0,1.86-1.619,2.932-3.676,2.932a5.673,5.673,0,0,1-3.085-1.028l-1.269-2.91h-.678l.459,3.961m-3.76.525v-.81l-2.3-.525V55.58l2.3-.525v-.81h-7.177v.81l2.3.525V69.256l-2.3.525v.81ZM177.9,69.8v.788h-4.289l-4.858-7.506h-1.9v6.171l2.21.525v.81h-6.717v-.81l1.9-.525V55.58l-1.9-.525v-.81c.372,0,3.26-.088,6.127-.088,4.661,0,6.543,1.9,6.543,4.4,0,3.064-3.239,3.9-3.808,4.048l4.355,6.609Zm-5.536-11.073c0-2.845-2.013-3.326-5.514-3.326v6.5h1.05C170.635,61.9,172.364,60.832,172.364,58.731Zm-35.73,12.145L142.345,55.6l1.794-.547v-.81h-4.9v.81l1.794.459-4.42,11.97-4.4-11.926,1.991-.5v-.81h-6.63v.81l1.816.547,5.777,15.274Zm-9.991-8.885c0,5.8-4.026,9.1-8.469,9.1a8.68,8.68,0,0,1-.022-17.353A8.219,8.219,0,0,1,126.643,61.991Zm-2.845.854c0-4.245-2.517-8.118-5.974-8.118-3.676,0-5.3,3.326-5.3,7.112s2.079,8.293,6.018,8.293C122.244,70.132,123.8,66.587,123.8,62.845Zm-16.65-7.79v-.81h-5.055v.81l1.991.459v10.46L95.069,54.245H90.8v.81c.175.022.394.066.5.088a4.532,4.532,0,0,1,1.554.7V69.256l-1.794.525v.81H96.1v-.81l-1.991-.46v-12.1L104.7,70.854h.744c-.044-.306-.088-2.188-.088-3.042V55.58Z" transform="translate(-61.773 -47.694)" fill="#efefef"/>
  <g id="Group_2862" data-name="Group 2862">
    <path id="XMLID_00000098197039953327840740000000483467928132857491_" d="M52.135,55.052l-.059.148a5.936,5.936,0,0,1,3.146,5.522,6.673,6.673,0,0,1-6.95,6.438c-5.286,0-7.108-3.088-7.108-5.927,0-3.637,2.543-6.061,2.543-9.374a5.179,5.179,0,0,0-4.081-5l-.089.148a4.294,4.294,0,0,1,1.3,3.1c0,3.578-3.016,6.121-3.016,10.231,0,3.785,2.647,7.639,10.3,7.639,6.824,0,10.422-3.34,10.422-6.9C58.547,58.039,56.358,55.458,52.135,55.052Z" transform="translate(-37.822 -44.584)" fill="#efefef"/>
    <path id="XMLID_00000018939452969838917230000011839165213004269722_" d="M55.054,61.01l1.922-18.3H52.955l1.922,18.3Z" transform="translate(-44.663 -42.706)" fill="#efefef"/>
  </g>
</svg>
