<svg id="g20076" xmlns="http://www.w3.org/2000/svg" width="85.034" height="44.144" viewBox="0 0 85.034 44.144">
  <path id="path19828" d="M1076.046,507.6a3.752,3.752,0,0,0-2.18-.623,3.9,3.9,0,0,0-2.319.763v-5.574h-2.756v18.187h2.756v-9.5a1.537,1.537,0,0,1,1.588-1.433,1.715,1.715,0,0,1,1.417.67,3.39,3.39,0,0,1,.328,1.915l-.016,8.346h2.755v-8.44c0-2.491-.311-3.379-1.572-4.313" transform="translate(-1018.526 -490.659)" fill="#efefef"/>
  <path id="path19830" d="M896.7,549.132a21.914,21.914,0,0,1-.078,2.429c-.093,1-.514,2.04-1.666,2.04-1.137,0-1.6-1.121-1.651-2.086a17.794,17.794,0,0,1-.078-2.383,21.866,21.866,0,0,1,.078-2.522c0-1.012.529-2.009,1.651-2.009,1.137,0,1.651,1,1.666,1.993C896.622,546.609,896.7,547.357,896.7,549.132Zm2.663-2.149c-.389-3.877-2.6-4.718-4.407-4.718-2.569,0-4.126,1.635-4.407,4.718-.031.249-.062.7-.078,2.149-.016,1.059.062,1.931.078,2.149.171,2.881,1.822,4.64,4.407,4.64s4.235-1.791,4.422-4.64c.016-.2.062-1.09.062-2.149,0-.483-.031-1.775-.078-2.149" transform="translate(-861.602 -525.946)" fill="#efefef"/>
  <path id="path19832" d="M1160.909,547.5c.016-.607.016-.732.031-.9.077-1.09.56-1.993,1.681-1.993,1.323-.016,1.635,1.277,1.682,1.993.03.389.046.638.046.9Zm3.41,3.644a4.047,4.047,0,0,1-.031.452c-.078.638-.328,2.009-1.667,2.009-1.152,0-1.589-1.043-1.666-2.071-.016-.3-.062-.623-.062-1.744h6.15s0-.919-.016-1.464c0-.218-.015-.576-.061-1.339a6.157,6.157,0,0,0-1.2-3.254,3.855,3.855,0,0,0-3.145-1.464c-2.491,0-4.049,1.619-4.344,4.718a17.074,17.074,0,0,0-.078,2.149c0,1.059.062,1.946.078,2.149.155,2.834,1.837,4.64,4.344,4.64,2.491,0,4.158-1.76,4.345-4.78h-2.647" transform="translate(-1097.207 -525.946)" fill="#efefef"/>
  <path id="path19834" d="M670.045,408.495h44.814l17.128,20.056-17.128,19.775H670.045l-17.206-19.838Zm45.888-2.227H668.955L649.9,428.41l19.075,22h46.962l19-21.924-19-22.22" transform="translate(-649.896 -406.268)" fill="#efefef"/>
  <path id="path19836" d="M802.5,505.67H803.8a1.973,1.973,0,0,1,2.227,2.087c0,.109.016.218.016.42a2.9,2.9,0,0,1-.016.436,2.1,2.1,0,0,1-2.087,2.18H802.5Zm6.524,14.575-.28-4.453c-.125-1.993-.638-3.176-1.682-3.784.747-.452,1.713-1.557,1.7-3.877,0-3.519-2.2-4.765-4.78-4.8h-4.2v18.047h2.709l.016-8.253h1.51c.872,0,1.853.763,2.009,2.912l.28,4.22a8.035,8.035,0,0,0,.14,1.121h2.725a5.787,5.787,0,0,1-.14-1.137" transform="translate(-781.793 -491.687)" fill="#efefef"/>
  <path id="path19838" d="M986.321,551.016a4.027,4.027,0,0,1-.031.5c-.078,1.012-.42,2.086-1.665,2.086-1.136,0-1.589-1.168-1.682-2.024-.047-.514-.031-.919-.047-2.445a18.376,18.376,0,0,1,.078-2.522c.094-1.137.53-2.009,1.651-2.009,1.167-.016,1.65,1,1.665,1.993,0,.016.031.249.047.779h2.725c0-.187-.016-.343-.016-.42-.311-3.768-2.616-4.687-4.422-4.687-2.569,0-4.127,1.635-4.407,4.718-.031.249-.062.7-.078,2.149-.016,1.059.062,1.931.078,2.149.171,2.881,1.822,4.64,4.407,4.64,2.678.016,4.158-1.619,4.422-4.64,0-.109.016-.187.016-.265h-2.741" transform="translate(-940.511 -525.946)" fill="#efefef"/>
</svg>
