<svg xmlns="http://www.w3.org/2000/svg" xmlns:xlink="http://www.w3.org/1999/xlink" width="219.986" height="80.549" viewBox="0 0 219.986 80.549">
  <defs>
    <clipPath id="clip-path">
      <path id="Path_51" data-name="Path 51" d="M178.878,491.044a1.293,1.293,0,0,1-2.277.655c-1.932-2.346-4.761-6.589-10.452-6.313-8.762.379-13.074.966-12.384-4,0,0,3.76-8.21,14.558-6.52C168.322,474.83,181.741,476.107,178.878,491.044Z" transform="translate(-153.693 -474.635)"/>
    </clipPath>
  </defs>
  <g id="Group_2779" data-name="Group 2779" transform="translate(-852 -57.451)">
    <g id="Group_23" data-name="Group 23" transform="translate(632.492 -399.511)">
      <path id="Path_35" data-name="Path 35" d="M304.256,504.721a10.333,10.333,0,0,1-3.885-4.319A14.187,14.187,0,0,1,299,494.049a14.948,14.948,0,0,1,.777-4.959,11.055,11.055,0,0,1,2.285-3.931,9.88,9.88,0,0,1,3.519-2.491,11.248,11.248,0,0,1,4.41-.868,11,11,0,0,1,4.8,1.051,9.8,9.8,0,0,1,3.656,2.925,8.861,8.861,0,0,1,1.782,4.2h-2.171a7.439,7.439,0,0,0-1.531-3.2,7.675,7.675,0,0,0-2.857-2.171,8.64,8.64,0,0,0-3.679-.777,8.349,8.349,0,0,0-7.678,4.776,12.624,12.624,0,0,0-1.12,5.439,12.45,12.45,0,0,0,1.1,5.416,8.363,8.363,0,0,0,3.154,3.542,9.453,9.453,0,0,0,8.958.206,6.689,6.689,0,0,0,2.742-2.719,8.967,8.967,0,0,0,1.074-4.091h-8.341v-1.988h10.512v1.645a10.446,10.446,0,0,1-1.3,5.416,8.836,8.836,0,0,1-3.633,3.519,11.163,11.163,0,0,1-5.325,1.234A10.82,10.82,0,0,1,304.256,504.721Z" fill="#fff"/>
      <path id="Path_36" data-name="Path 36" d="M412.417,483.6v23.7H410.2V483.6Z" transform="translate(-85.789 -1.389)" fill="#fff"/>
      <path id="Path_37" data-name="Path 37" d="M431.394,539.038V537.21a18.4,18.4,0,0,0,2.468.206,3.505,3.505,0,0,0,1.211-.206,2.114,2.114,0,0,0,.8-.64,4.451,4.451,0,0,0,.617-1.28l.777-2.011L430.8,516.3h2.24l5.256,13.985,5.027-13.985h2.217L438.5,535.884a5.431,5.431,0,0,1-1.782,2.582,4.771,4.771,0,0,1-2.879.823A11.484,11.484,0,0,1,431.394,539.038Z" transform="translate(-101.681 -26.616)" fill="#fff"/>
      <path id="Path_38" data-name="Path 38" d="M525.813,515.415a5,5,0,0,1,2.034,2.148,6.812,6.812,0,0,1,.731,3.2v10.512H526.5V520.945a4.4,4.4,0,0,0-1.051-3.131,3.717,3.717,0,0,0-2.857-1.143,4.317,4.317,0,0,0-2.171.548,4.043,4.043,0,0,0-1.508,1.531,4.491,4.491,0,0,0-.548,2.217v10.283h-2.1V520.922a4.457,4.457,0,0,0-1.028-3.131,3.669,3.669,0,0,0-2.857-1.12,4.317,4.317,0,0,0-2.171.548,3.888,3.888,0,0,0-1.508,1.531,4.465,4.465,0,0,0-.548,2.194v10.329H506V515.049h2.08v1.6a4.749,4.749,0,0,1,1.874-1.463,6.2,6.2,0,0,1,2.582-.5,5.843,5.843,0,0,1,3.039.777,5.235,5.235,0,0,1,2.057,2.171,5.1,5.1,0,0,1,2.057-2.171,6.206,6.206,0,0,1,3.108-.777A5.529,5.529,0,0,1,525.813,515.415Z" transform="translate(-159.696 -25.365)" fill="#fff"/>
      <path id="Path_39" data-name="Path 39" d="M619.154,501.578H616v-1.942h3.154V494.7H621.3v4.936h3.154v1.942H621.3v10.055a3.787,3.787,0,0,0,.206,1.417,1.251,1.251,0,0,0,.754.686,4.752,4.752,0,0,0,1.6.206c.206,0,.594,0,1.211-.023v1.828c-.48.046-1.028.091-1.6.091a6.362,6.362,0,0,1-2.491-.411,2.676,2.676,0,0,1-1.371-1.325,5.605,5.605,0,0,1-.434-2.422v-10.1Z" transform="translate(-244.559 -9.952)" fill="#fff"/>
      <path id="Path_40" data-name="Path 40" d="M665.634,530.451a7.06,7.06,0,0,1-2.651-2.994,10.724,10.724,0,0,1-.983-4.525,9.979,9.979,0,0,1,.983-4.433,6.936,6.936,0,0,1,2.651-2.948,8.045,8.045,0,0,1,7.952,0,6.983,6.983,0,0,1,2.651,2.971,10.014,10.014,0,0,1,.937,4.41v.457l-13.117-.023a7.631,7.631,0,0,0,.777,3.245,5.225,5.225,0,0,0,1.942,2.148,5.281,5.281,0,0,0,2.811.754,5.4,5.4,0,0,0,3.154-1.005,4.673,4.673,0,0,0,1.828-2.582h2.148a6.574,6.574,0,0,1-1.371,2.9,6.781,6.781,0,0,1-2.514,1.942,7.7,7.7,0,0,1-3.222.686A6.716,6.716,0,0,1,665.634,530.451Zm9.346-8.935a6.566,6.566,0,0,0-.983-2.674,5.037,5.037,0,0,0-1.874-1.737,5.476,5.476,0,0,0-5.05,0,5.052,5.052,0,0,0-1.874,1.737,6.588,6.588,0,0,0-.983,2.651Z" transform="translate(-280.047 -25.227)" fill="#fff"/>
      <path id="Path_41" data-name="Path 41" d="M742.088,530.451a6.983,6.983,0,0,1-2.651-2.971,10.89,10.89,0,0,1,.023-8.889,7.122,7.122,0,0,1,2.719-3.016,8.1,8.1,0,0,1,7.29-.388,6.555,6.555,0,0,1,2.445,1.942,6.909,6.909,0,0,1,1.3,2.948h-2.171a4.46,4.46,0,0,0-1.691-2.628,4.951,4.951,0,0,0-3.108-.983,5.474,5.474,0,0,0-2.948.8,5.349,5.349,0,0,0-1.965,2.285,8.857,8.857,0,0,0-.046,6.833,5,5,0,0,0,4.73,3.062,5.591,5.591,0,0,0,2.239-.434,5.193,5.193,0,0,0,1.782-1.234,4.493,4.493,0,0,0,1.028-1.851h2.171a6.894,6.894,0,0,1-3.931,4.845,7.858,7.858,0,0,1-3.291.686A6.658,6.658,0,0,1,742.088,530.451Z" transform="translate(-339.065 -25.227)" fill="#fff"/>
      <path id="Path_42" data-name="Path 42" d="M829.157,492.421a7.2,7.2,0,0,1,1.6,5.05v9.8h-2.148v-9.506a5.958,5.958,0,0,0-1.028-3.862,3.872,3.872,0,0,0-3.154-1.234,5.244,5.244,0,0,0-2.765.708,4.707,4.707,0,0,0-1.851,2.034,6.862,6.862,0,0,0-.663,3.062v8.752H817V483.6h2.148v9.6a6.086,6.086,0,0,1,2.285-1.874,7.179,7.179,0,0,1,3.085-.663A6.011,6.011,0,0,1,829.157,492.421Z" transform="translate(-399.627 -1.389)" fill="#fff"/>
      <path id="Path_43" data-name="Path 43" d="M896.351,574.408a2.229,2.229,0,0,1-.777-.754,2.039,2.039,0,0,1-.274-1.028,2.062,2.062,0,0,1,.274-1.051,2.3,2.3,0,0,1,.777-.777,1.931,1.931,0,0,1,1.051-.3,2.062,2.062,0,0,1,1.051.274,2.3,2.3,0,0,1,.777.777,1.931,1.931,0,0,1,.3,1.051,2.013,2.013,0,0,1-1.051,1.782,2.123,2.123,0,0,1-1.051.274A1.965,1.965,0,0,1,896.351,574.408Z" transform="translate(-460.033 -68.43)" fill="#fff"/>
    </g>
    <g id="Group_2752" data-name="Group 2752" transform="translate(5065 -2158.549)">
      <path id="Path_44" data-name="Path 44" d="M121.069,503.349l-.207-.31c-7.175-10.625-10.418-12.212-12.833-12.315-6.14.138-9.728-.655-11-2.38-.966-1.345-.448-2.932-.069-4.105.828-2.587.793-2.725-.207-3.381-1.345-.69-2.07-1.414-2.242-2.242a2.451,2.451,0,0,1,.552-1.863c-2.587-1.207-1.863-3.277-1.311-4.829.069-.172.1-.31.172-.483a2.308,2.308,0,0,0,.069-1.794c-.276-.448-1.035-.724-2.242-.862-1.587-.172-2.622-.724-3.036-1.656-.655-1.449.414-3.346,1.1-4.347.172-.241.483-.655.862-1.173,1.483-2,5-6.658,4.726-8.314a.531.531,0,0,0-.172-.345l-.1-.069c-2.139-1.552-2.967-2.691,1.621-11.936v-.034c7.106-12.143,9.038-14.281,19.732-16.731a51.156,51.156,0,0,1,11.142-1.38c13.592,0,20.146,7.106,23.216,13.074a32.077,32.077,0,0,1,3.381,14.454c0,4.485-.9,8.417-2.415,10.556-6.727,10.211-3.381,18.559-2.1,21.7l.1.242-.172.172c-5.174,5.313-12.557,10.556-28.184,20.111ZM108.03,489.93h0c3.036.138,6.451,2.277,13.281,12.35,15.178-9.28,22.457-14.489,27.528-19.629-1.38-3.415-4.519-11.867,2.311-22.181,2.725-3.829,3.657-15.144-1-24.182-2.967-5.761-9.28-12.626-22.492-12.626a49.286,49.286,0,0,0-10.97,1.345c-10.452,2.415-12.177,4.312-19.215,16.351-4.485,9.038-3.553,9.694-1.863,10.9l.1.069a1.315,1.315,0,0,1,.517.862c.276,1.828-2.38,5.554-4.9,8.9-.379.483-.655.9-.828,1.138-.483.69-1.552,2.415-1.035,3.553.276.655,1.1,1.035,2.38,1.207,1.483.172,2.38.552,2.829,1.242a2.975,2.975,0,0,1,.034,2.484c-.069.172-.1.31-.172.483-.586,1.656-1.1,3.1,1.345,4l.552.207-.379.448a2.114,2.114,0,0,0-.724,1.621c.1.552.724,1.138,1.828,1.69l.035.035c1.552,1.035,1.414,1.69.552,4.312-.379,1.138-.793,2.38-.034,3.381,1.035,1.483,4.519,2.173,10.314,2.035Z" transform="translate(-4301.507 1793.2)" fill="#001c26" opacity="0.05"/>
      <path id="Path_45" data-name="Path 45" d="M125.274,505.233l-.207-.31c-6.692-9.9-9.693-11.349-11.936-11.453-5.726.138-9.107-.586-10.28-2.242-.9-1.242-.414-2.76-.069-3.864.793-2.449.724-2.518-.172-3.139-1.276-.655-1.966-1.345-2.1-2.1a2.12,2.12,0,0,1,.517-1.725c-2.415-1.138-1.725-3.07-1.207-4.519.035-.138.1-.276.138-.448a2.125,2.125,0,0,0,.069-1.656c-.276-.414-.931-.69-2.07-.793-1.483-.172-2.449-.69-2.829-1.552-.586-1.276.241-2.932,1.035-4.071.172-.241.448-.621.793-1.069,1.38-1.863,4.657-6.175,4.416-7.727a.526.526,0,0,0-.172-.31l-.1-.069c-2-1.449-2.76-2.518,1.518-11.142V447c6.623-11.315,8.417-13.316,18.421-15.627a46.072,46.072,0,0,1,10.383-1.276c12.695,0,18.766,6.623,21.629,12.177,4.554,8.831,3.588,19.525.9,23.32-6.278,9.521-3.139,17.248-1.966,20.18l.1.241-.207.276c-4.83,4.933-11.694,9.831-26.286,18.766Zm-12.143-12.557h0c2.829.1,6,2.139,12.384,11.487,14.109-8.624,20.87-13.454,25.6-18.249-1.276-3.208-4.209-11.073,2.139-20.7,2.518-3.553,3.415-14.075-.931-22.492-2.76-5.347-8.659-11.763-20.939-11.763a46.254,46.254,0,0,0-10.211,1.242c-9.728,2.242-11.315,4-17.9,15.213-4.174,8.383-3.312,9-1.759,10.142l.1.069a1.2,1.2,0,0,1,.483.828c.276,1.725-2.208,5.209-4.554,8.314-.345.448-.621.828-.793,1.069-.448.655-1.449,2.242-.966,3.277.276.586,1,.966,2.208,1.1a3.327,3.327,0,0,1,2.656,1.173,2.713,2.713,0,0,1,.035,2.311,2.4,2.4,0,0,1-.172.448c-.552,1.621-1,2.863,1.242,3.691l.552.207-.379.448a1.88,1.88,0,0,0-.655,1.483c.1.517.69,1.035,1.69,1.552l.035.034c1.449.966,1.311,1.587.517,4.036-.345,1.035-.724,2.208-.035,3.139,1.035,1.414,4.278,2.035,9.659,1.932Z" transform="translate(-4305.711 1788.418)" fill="#fff" opacity="0.1"/>
      <path id="Path_46" data-name="Path 46" d="M130.047,508.124l-.207-.31c-6.106-9.038-8.866-10.383-10.935-10.487-5.278.138-8.348-.552-9.452-2.07-.862-1.173-.379-2.553-.069-3.553.724-2.208.655-2.277-.172-2.829-1.173-.586-1.794-1.242-1.932-1.966a2.058,2.058,0,0,1,.448-1.587c-2.173-1.069-1.552-2.829-1.1-4.14.035-.138.1-.276.138-.414a1.862,1.862,0,0,0,.069-1.483q-.362-.569-1.863-.724a2.933,2.933,0,0,1-2.622-1.449c-.586-1.276.345-2.9.966-3.76.138-.207.414-.552.724-1,1.276-1.69,4.243-5.657,4.036-7.037-.035-.172-.069-.207-.138-.241l-.069-.069c-1.863-1.345-2.587-2.311,1.38-10.245v-.035c6.071-10.418,7.727-12.212,16.9-14.351a41.933,41.933,0,0,1,9.521-1.173c11.66,0,17.248,6.071,19.87,11.211,4.174,8.107,3.312,17.938.828,21.422-5.726,8.693-2.863,15.8-1.794,18.456l.1.241-.172.172c-4.416,4.519-10.728,9-24.079,17.179ZM118.9,496.5h0c2.622.1,5.554,1.966,11.349,10.521,12.9-7.9,19.111-12.315,23.423-16.7-1.173-2.932-3.829-10.176,1.966-18.973,2.311-3.243,3.1-12.9-.862-20.594-2.518-4.9-7.934-10.763-19.18-10.763a42.582,42.582,0,0,0-9.349,1.138c-8.9,2.035-10.383,3.657-16.386,13.937-3.795,7.658-3.036,8.21-1.621,9.245l.069.069a1.093,1.093,0,0,1,.448.793c.241,1.587-2.035,4.795-4.174,7.658-.31.414-.586.759-.724.966-.414.586-1.311,2.035-.9,2.967.241.517.9.862,2,.966a3.146,3.146,0,0,1,2.449,1.069,2.527,2.527,0,0,1,.034,2.173c-.034.138-.1.276-.138.414-.517,1.449-.9,2.587,1.138,3.346l.552.207-.379.448A1.738,1.738,0,0,0,108,486.7c.1.448.621.931,1.552,1.414l.035.034c1.345.9,1.207,1.518.483,3.76-.31.931-.655,2-.035,2.863.966,1.276,3.933,1.863,8.866,1.725Z" transform="translate(-4310.45 1782.458)" fill="#fff" opacity="0.3"/>
      <g id="Group_17" data-name="Group 17" transform="translate(-4205.956 2224.555)" opacity="0.5">
        <g id="Group_16" data-name="Group 16" transform="translate(0 0)">
          <path id="Path_47" data-name="Path 47" d="M134.479,510.728l-.207-.31c-5.554-8.279-8.072-9.487-9.969-9.59h-1.069c-4.243,0-6.658-.621-7.589-1.932-.793-1.069-.379-2.346-.069-3.277.655-2,.621-2.035-.138-2.553-1.069-.552-1.656-1.138-1.794-1.828a2.049,2.049,0,0,1,.379-1.449c-1.966-.966-1.414-2.622-1-3.829a1.681,1.681,0,0,1,.138-.379c.207-.621.241-1.069.069-1.311-.207-.31-.759-.552-1.69-.621a2.765,2.765,0,0,1-2.449-1.345c-.517-1.173.31-2.691.862-3.484.138-.207.379-.517.655-.9,1.173-1.552,3.864-5.174,3.691-6.416a.361.361,0,0,0-.1-.207l-.069-.069c-1.725-1.242-2.38-2.139,1.242-9.418v-.034c5.554-9.521,7.072-11.177,15.489-13.109a38.6,38.6,0,0,1,8.728-1.069c10.659,0,15.8,5.588,18.214,10.245,3.829,7.417,3,16.42.759,19.629a16.957,16.957,0,0,0-1.656,16.869l.1.241-.172.172c-4.071,4.174-9.831,8.279-22.043,15.73ZM124.3,500.035h0c2.38.1,5.071,1.794,10.383,9.625,11.729-7.175,17.421-11.211,21.388-15.213-1.1-2.725-3.484-9.314,1.828-17.352,2.1-2.967,2.829-11.763-.793-18.8-2.311-4.485-7.244-9.832-17.49-9.832a37.4,37.4,0,0,0-8.555,1.069c-7.865,1.794-9.28,3-14.971,12.729-3.484,6.968-2.76,7.486-1.483,8.417l.069.069a.981.981,0,0,1,.414.724c.207,1.483-1.863,4.416-3.829,7.037-.276.379-.517.69-.655.862-.379.517-1.173,1.863-.793,2.691.207.483.828.759,1.794.9a3.007,3.007,0,0,1,2.277,1,2.268,2.268,0,0,1,.035,2,1.681,1.681,0,0,1-.138.379c-.517,1.449-.724,2.38,1,3l.552.207-.379.448a1.551,1.551,0,0,0-.552,1.173c.069.414.552.862,1.38,1.276l.034.034c1.311.862,1.1,1.518.483,3.45a2.97,2.97,0,0,0-.069,2.587c.862,1.069,3.588,1.621,8.072,1.518Z" transform="translate(-108.926 -447.6)" fill="#fff"/>
        </g>
      </g>
      <g id="Group_18" data-name="Group 18" transform="translate(-4203.235 2228.074)">
        <path id="Path_48" data-name="Path 48" d="M140.524,514.425l-.207-.31c-4.864-7.21-7.037-8.279-8.659-8.348h-.931c-3.691,0-5.83-.552-6.658-1.69a3.188,3.188,0,0,1-.069-2.9c.552-1.725.517-1.759-.1-2.208-.931-.483-1.449-1-1.587-1.587a1.652,1.652,0,0,1,.31-1.242c-1.725-.862-1.207-2.277-.862-3.346l.1-.31c.172-.552.207-.9.034-1.138-.172-.276-.655-.448-1.449-.552a2.445,2.445,0,0,1-2.139-1.173c-.448-.966.172-2.208.759-3.07a8.668,8.668,0,0,1,.586-.793c1-1.345,3.381-4.485,3.208-5.589,0-.1-.069-.138-.069-.172l-.069-.034c-1.518-1.069-2.07-1.9,1.069-8.245v-.034c4.864-8.314,6.175-9.763,13.523-11.453a34.518,34.518,0,0,1,7.624-.931c9.314,0,13.8,4.864,15.9,8.969,3.346,6.485,2.622,14.351.655,17.145a14.726,14.726,0,0,0-1.414,14.7l.1.242-.172.172c-3.519,3.622-8.555,7.21-19.249,13.729Zm-8.831-9.417h0c2.1.1,4.45,1.552,9.073,8.383,10.245-6.278,15.178-9.8,18.628-13.281-.966-2.38-3.036-8.141,1.587-15.178,1.828-2.587,2.484-10.245-.69-16.386-2-3.9-6.313-8.555-15.247-8.555a33.067,33.067,0,0,0-7.451.931c-6.865,1.587-8.072,2.622-13.04,11.108-3.036,6.071-2.415,6.52-1.311,7.313l.069.034a.916.916,0,0,1,.379.655c.207,1.311-1.621,3.864-3.346,6.175-.241.345-.448.586-.552.759-.31.448-1.035,1.621-.69,2.311.172.414.69.655,1.552.759a2.444,2.444,0,0,1,2,.9,2.094,2.094,0,0,1,.035,1.759c-.035.1-.069.207-.1.345-.448,1.311-.621,2.07.862,2.587l.517.172-.345.414c-.276.345-.552.69-.483,1,.069.345.483.724,1.207,1.1l.035.034c1.173.759.966,1.345.414,3.07a2.452,2.452,0,0,0-.035,2.242c.655.931,2.691,1.38,6.071,1.38.207,0,.517-.035.862-.035Z" transform="translate(-117.692 -458.782)" fill="#fff"/>
        <path id="Path_49" data-name="Path 49" d="M139.507,514.133l-.483-.69c-4.76-7.037-6.83-8.072-8.279-8.141h-.9c-3.933,0-6.106-.586-7.072-1.9a3.516,3.516,0,0,1-.138-3.346,6.237,6.237,0,0,0,.379-1.414,2.359,2.359,0,0,0-.241-.172,3.154,3.154,0,0,1-1.828-1.932,2.013,2.013,0,0,1,.138-1.173c-1.552-1.1-.966-2.76-.655-3.726l.1-.31c.172-.552.1-.69.1-.69s-.138-.207-1.069-.31a2.9,2.9,0,0,1-2.553-1.483c-.448-.931-.138-2.173.793-3.553.138-.172.345-.448.586-.793,2.518-3.346,3.1-4.623,3.139-5.105-1.794-1.311-2.173-2.518.966-8.866l.034-.069c4.9-8.348,6.347-9.969,13.868-11.694a35.56,35.56,0,0,1,7.727-.966c9.59,0,14.213,5.036,16.386,9.245,3.45,6.658,2.656,14.8.621,17.7a14.241,14.241,0,0,0-1.38,14.213l.207.552-.414.414c-3.553,3.657-8.624,7.279-19.352,13.833Zm-8.728-10.625h.034c2.208.1,4.623,1.552,9.211,8.21,9.728-5.968,14.523-9.383,17.869-12.695-.9-2.311-2.932-8.21,1.759-15.316,1.759-2.484,2.346-9.9-.724-15.868-1.966-3.795-6.106-8.279-14.8-8.279a34.1,34.1,0,0,0-7.348.9c-6.727,1.552-7.8,2.449-12.695,10.866-2.794,5.657-2.311,6.037-1.449,6.623l.069.035a1.572,1.572,0,0,1,.586,1c.207,1.345-1.173,3.519-3.45,6.554l-.034.034c-.241.31-.414.552-.517.69a2.469,2.469,0,0,0-.655,1.828c.1.207.517.379,1.138.448a3.059,3.059,0,0,1,2.38,1.1,2.629,2.629,0,0,1,.1,2.208c-.034.1-.069.241-.1.345-.448,1.311-.448,1.587.552,1.932l1.207.448-.828.966c-.345.414-.379.552-.345.586,0,0,.069.276.931.724l.069.034c1.518,1,1.207,1.966.655,3.657-.207.655-.448,1.345-.138,1.759.31.448,1.483,1.173,5.623,1.173a2.581,2.581,0,0,0,.9.035Z" transform="translate(-116.813 -457.8)" fill="#fff"/>
      </g>
      <g id="Group_21" data-name="Group 21" transform="translate(-4190.513 2233.881)">
        <path id="Path_50" data-name="Path 50" d="M178.884,491.295a1.293,1.293,0,0,1-2.277.655c-1.932-2.346-4.761-6.589-10.452-6.313-7.52.345-11.763.828-12.384-2.208a3.534,3.534,0,0,1,.655-2.794c1.518-2.035,5.761-6.313,13.9-5.519C168.328,475.081,181.747,476.358,178.884,491.295Z" transform="translate(-153.699 -474.887)" fill="#1da4e4"/>
        <g id="Group_20" data-name="Group 20" transform="translate(0 0)">
          <g id="Group_19" data-name="Group 19" clip-path="url(#clip-path)">
            <ellipse id="Ellipse_10" data-name="Ellipse 10" cx="10.383" cy="11.142" rx="10.383" ry="11.142" transform="translate(2.141 2.541)" fill="#26ceed"/>
            <ellipse id="Ellipse_11" data-name="Ellipse 11" cx="7.003" cy="7.52" rx="7.003" ry="7.52" transform="translate(5.522 6.163)" fill="#52dfee"/>
          </g>
        </g>
      </g>
    </g>
  </g>
</svg>
