<svg xmlns="http://www.w3.org/2000/svg" width="28.42" height="26.898" viewBox="0 0 28.42 26.898">
  <g id="attach" transform="translate(-0.001 -13.707)">
    <g id="Group_2983" data-name="Group 2983" transform="translate(0.001 13.707)">
      <path id="Path_29976" data-name="Path 29976" d="M25.76,16.363a9.1,9.1,0,0,0-12.848,0L1.9,27.376a6.49,6.49,0,0,0,9.178,9.177l10.1-10.1a3.894,3.894,0,1,0-5.506-5.506l-6.6,6.6A1.3,1.3,0,1,0,10.9,29.389l6.6-6.6a1.3,1.3,0,1,1,1.836,1.835l-10.1,10.1a3.894,3.894,0,0,1-5.507-5.507L14.747,18.2a6.489,6.489,0,1,1,9.177,9.177L12.911,38.39a1.3,1.3,0,0,0,1.836,1.836L25.76,29.212a9.085,9.085,0,0,0,0-12.849Z" transform="translate(-0.001 -13.707)" fill="#001c26"/>
    </g>
  </g>
</svg>
