<svg xmlns="http://www.w3.org/2000/svg" width="910.757" height="627.36" viewBox="0 0 910.757 627.36">
  <g id="Illustration_Brain-01" data-name="Illustration Brain-01" transform="translate(-130.3 -271.836)">
    <path id="Path_84" data-name="Path 84" d="M130.3,488.6s-.236,70.226,36.65,113.142c36.886,42.8,79.92,65.733,111.841,70.935a533.957,533.957,0,0,1,54.029,11.468s10.522,97.654,64.788,119.644,61.122,21.517,84.058,8.394c23.054-13.123,40.788-25.064,40.788-25.064s-101.083-14.305-126.028-73.063-69.28-104.157-116.57-131.7-131.23-71.881-133.949-77.91C143.3,498.176,130.3,488.6,130.3,488.6Z" transform="translate(0 39.32)" fill="#33dce4"/>
    <g id="Group_32" data-name="Group 32" transform="translate(134.469 272.856)">
      <path id="Path_85" data-name="Path 85" d="M203.548,396.69s-10.4,11.941-17.143,20.926a79.44,79.44,0,0,0-9.694,16.433s-27.665,17.97-34.4,38.069c-6.739,20.217-10.4,32.867-7.448,53.083a178.976,178.976,0,0,0,10.4,38.069s.709,19.389,32.157,31.33c31.33,11.941,123.191,47.054,127.684,50.837s38.069,26.837,38.069,26.837l7.448,38.069s4.493,47.054,11.941,59.7,19.389,46.344,43.271,58.995,53.793,11.941,72.472,7.448,31.33-10.4,73.891-24.591,58.285-17.97,61.241-18.68,103.8,20.926,131.467,15.724,38.9-15.724,38.9-15.724,14.187,26.837,35.113,39.606c20.926,12.65,76.965,41.024,83.7,46.344,6.739,5.2,14.9,21.635,34.4,18.68,19.389-2.956,29.911-28.374,32.157-31.33s29.911-36.65,38.069-53.083a155.182,155.182,0,0,0,11.231-29.083s25.419-26.128,20.217-70.226-11.231-81.457-22.463-113.5c-11.231-32.157-17.143-44.1-17.143-44.1s-7.448-70.935-41.852-103.8-54.5-42.561-54.5-42.561-23.882-36.65-56.748-50.009c-32.867-13.478-82.167-51.546-105.339-60.531S704,297.381,704,297.381s-63.487-20.217-110.541-20.217H546.4s-46.344-9.695-93.4,0-96.354,2.246-130.757,17.143-70.935,50.009-70.935,50.009S212.533,369.025,203.548,396.69Z" transform="translate(-133.826 -272.856)" fill="none" stroke="#fff" stroke-miterlimit="10" stroke-width="1"/>
      <path id="Path_86" data-name="Path 86" d="M351.2,562.212s0-13,21.044-17.025,36.532,3.192,36.532,3.192S356.875,555.71,351.2,562.212Z" transform="translate(-94.209 -223.444)" fill="#fff"/>
      <path id="Path_87" data-name="Path 87" d="M445.9,554.612s0-13,21.044-17.024,36.532,3.192,36.532,3.192S451.575,548.11,445.9,554.612Z" transform="translate(-76.949 -224.829)" fill="#fff"/>
      <path id="Path_88" data-name="Path 88" d="M515.8,538.112s0-13,21.044-17.025,36.532,3.192,36.532,3.192S521.475,531.728,515.8,538.112Z" transform="translate(-64.21 -227.836)" fill="#fff"/>
      <path id="Path_89" data-name="Path 89" d="M497.481,427.578s-6.266-11.35,10.167-25.182,33.458-14.9,33.458-14.9S499.254,419.184,497.481,427.578Z" transform="translate(-67.762 -251.961)" fill="#fff"/>
      <path id="Path_90" data-name="Path 90" d="M428.181,400.078s-6.266-11.35,10.167-25.182S471.806,360,471.806,360,429.954,391.684,428.181,400.078Z" transform="translate(-80.392 -256.973)" fill="#fff"/>
      <path id="Path_91" data-name="Path 91" d="M282.181,491.878s-6.266-11.35,10.167-25.182,33.458-14.9,33.458-14.9S283.954,483.484,282.181,491.878Z" transform="translate(-107.002 -240.242)" fill="#fff"/>
      <path id="Path_92" data-name="Path 92" d="M330.9,461.353s.118-13,21.281-16.788,36.413,3.665,36.413,3.665S336.575,454.969,330.9,461.353Z" transform="translate(-97.909 -241.756)" fill="#fff"/>
      <path id="Path_93" data-name="Path 93" d="M640.9,397.434s11.113-16.079,51.073,4.138c39.842,20.217,60.177,47.763,60.177,47.763S656.269,396.252,640.9,397.434Z" transform="translate(-41.41 -251.255)" fill="#fff"/>
      <path id="Path_94" data-name="Path 94" d="M295.609,362.449s-2.01-12.768,18.089-20.217c20.217-7.33,36.532-2.6,36.532-2.6S300.1,355.119,295.609,362.449Z" transform="translate(-104.351 -260.959)" fill="#fff"/>
      <path id="Path_95" data-name="Path 95" d="M567.609,332.749s-2.01-12.768,18.088-20.217c20.216-7.33,36.532-2.6,36.532-2.6S572.22,325.419,567.609,332.749Z" transform="translate(-54.778 -266.372)" fill="#fff"/>
      <path id="Path_96" data-name="Path 96" d="M480.909,332.549S478.9,319.781,499,312.332c20.217-7.33,36.532-2.6,36.532-2.6S485.519,325.219,480.909,332.549Z" transform="translate(-70.579 -266.408)" fill="#fff"/>
      <path id="Path_97" data-name="Path 97" d="M317.135,626.235s-1.419-16.788,2.837-22.463c4.256-5.557,9.813-4.966,9.813-4.966s-8.394-23.172,28.019-38.542c36.532-15.487,94.7-2.837,94.7-2.837s27.31-9.1,54.738-9.813,39.96-7.685,44.926-11.941S574.63,519.6,606.2,519.6s51.9.709,51.9.709,25.3-31.566,29.438-51.9c4.256-20.335,21.044-34.4,21.044-34.4" transform="translate(-100.459 -243.486)" fill="none" stroke="#33dee6" stroke-linecap="round" stroke-linejoin="round" stroke-miterlimit="10" stroke-width="4"/>
      <path id="Path_98" data-name="Path 98" d="M613.2,437s20.335,14.069,20.335,30.857" transform="translate(-46.458 -242.939)" fill="none" stroke="#fff" stroke-linecap="round" stroke-linejoin="round" stroke-miterlimit="10" stroke-width="2"/>
      <path id="Path_99" data-name="Path 99" d="M577.262,423.307s-32.985-2.837-35.822,37.123,18.916,59.586,23.882,61" transform="translate(-59.583 -245.443)" fill="none" stroke="#fff" stroke-linecap="round" stroke-linejoin="round" stroke-miterlimit="10" stroke-width="2"/>
      <path id="Path_100" data-name="Path 100" d="M594.4,403.176c29.556-24.354,53.556-34.049,72.709-30.147,20.335,4.256,58.167,23.172,76.492,32.985,18.207,9.813,32.276,18.916,37.123,29.438l4.966,10.522" transform="translate(-49.884 -254.751)" fill="none" stroke="#fff" stroke-linecap="round" stroke-linejoin="round" stroke-miterlimit="10" stroke-width="2"/>
      <path id="Path_101" data-name="Path 101" d="M577.075,451.515s-12.887-17.143,5.557-40.315" transform="translate(-53.84 -247.642)" fill="none" stroke="#fff" stroke-linecap="round" stroke-linejoin="round" stroke-miterlimit="10" stroke-width="2"/>
      <path id="Path_102" data-name="Path 102" d="M671.093,383.449l-2.128-34.4s9.1-2.837-1.419-24.591-42.088-26.6-51.9-24.591c-9.813,2.128-26.01,3.547-35.822,16.788-9.813,13.359-10.522,25.3-10.522,27.31,0,2.128-10.522,13.359-14.778,26.01a149.144,149.144,0,0,0-5.557,20.335s-26.01-7.685-56.866,31.566" transform="translate(-68.529 -268.009)" fill="none" stroke="#fff" stroke-linecap="round" stroke-linejoin="round" stroke-miterlimit="10" stroke-width="2"/>
      <path id="Path_103" data-name="Path 103" d="M492.15,415s-11.941,11.231-17.5,42.8-6.266,45.635-15.487,61.714c-9.1,16.079-15.488,28.729-.709,33.694" transform="translate(-76.263 -246.949)" fill="none" stroke="#fff" stroke-linecap="round" stroke-linejoin="round" stroke-miterlimit="10" stroke-width="2"/>
      <path id="Path_104" data-name="Path 104" d="M496.37,342s-61,21.044-74.364,49.064-16.079,56.866-13.359,70.108a90.251,90.251,0,0,1,1.537,11.468" transform="translate(-83.912 -260.254)" fill="none" stroke="#fff" stroke-linecap="round" stroke-linejoin="round" stroke-miterlimit="10" stroke-width="2"/>
      <path id="Path_105" data-name="Path 105" d="M413.389,433.125s-9.1-10.522-18.916,15.487-22.463,57.576-28.729,72.945c-6.266,15.488-2.837,22.463,0,25.3" transform="translate(-92.201 -244.03)" fill="none" stroke="#fff" stroke-linecap="round" stroke-linejoin="round" stroke-miterlimit="10" stroke-width="2"/>
      <path id="Path_106" data-name="Path 106" d="M417.371,448.073S397.037,433.294,378.83,434s-32.985,12.65-35.822,16.079a45.669,45.669,0,0,0-42.088,9.1c-20.335,16.788-21.754,36.532-21.754,36.532s-10.522-21.753-32.985-1.419-1.419,42.8,21.044,52.61,75.191,34.4,75.191,34.4" transform="translate(-115.1 -243.49)" fill="none" stroke="#fff" stroke-linecap="round" stroke-linejoin="round" stroke-miterlimit="10" stroke-width="2"/>
      <path id="Path_107" data-name="Path 107" d="M272.6,486.2s19.152,25.182,37.714,35.822" transform="translate(-108.534 -233.973)" fill="none" stroke="#fff" stroke-linecap="round" stroke-linejoin="round" stroke-miterlimit="10" stroke-width="2"/>
      <path id="Path_108" data-name="Path 108" d="M326.6,447.7s-.946,44.335,8.394,70.817" transform="translate(-98.696 -240.989)" fill="none" stroke="#fff" stroke-linecap="round" stroke-linejoin="round" stroke-miterlimit="10" stroke-width="2"/>
      <path id="Path_109" data-name="Path 109" d="M295.143,411.574s7.685-14.778,4.256-26.6c-3.547-11.941-53.32-13.359-75.783,4.965-22.463,18.207-32.276,24.591-42.8,44.926s-9.813,34.4-9.813,34.4-11.941,1.419-18.207,18.207" transform="translate(-130.368 -254.045)" fill="none" stroke="#fff" stroke-linecap="round" stroke-linejoin="round" stroke-miterlimit="10" stroke-width="2"/>
      <path id="Path_110" data-name="Path 110" d="M246.593,419.249s-6.975-2.837-27.31,8.394-22.463,24.591-23.172,35.822a45.741,45.741,0,0,0,4.256,21.044s17.5,9.813,31.566,10.522,21.754.709,23.882-9.1-19.625-35.822-19.625-35.822" transform="translate(-122.487 -246.233)" fill="none" stroke="#fff" stroke-linecap="round" stroke-linejoin="round" stroke-miterlimit="10" stroke-width="2"/>
      <path id="Path_111" data-name="Path 111" d="M177.1,463.7s14.778,14.778,26.6,12.65" transform="translate(-125.939 -238.073)" fill="none" stroke="#fff" stroke-linecap="round" stroke-linejoin="round" stroke-miterlimit="10" stroke-width="2"/>
      <path id="Path_112" data-name="Path 112" d="M275.6,418.606s1.419-36.532,28.019-41.379c26.6-4.966,76.492,14.069,76.492,14.069" transform="translate(-107.987 -253.984)" fill="none" stroke="#fff" stroke-linecap="round" stroke-linejoin="round" stroke-miterlimit="10" stroke-width="2"/>
      <path id="Path_113" data-name="Path 113" d="M294.878,388.642s-1.419-18.916-6.975-31.566-2.128-18.207,9.1-21.044,32.985-3.547,48.354-11.232" transform="translate(-106.221 -263.388)" fill="none" stroke="#fff" stroke-linecap="round" stroke-linejoin="round" stroke-miterlimit="10" stroke-width="2"/>
      <path id="Path_114" data-name="Path 114" d="M421.518,304.1s-28.729,6.975-26.6,35.822c2.128,28.729,28.019,42.8,30.147,47.054" transform="translate(-86.262 -267.161)" fill="none" stroke="#33dee6" stroke-linecap="round" stroke-linejoin="round" stroke-miterlimit="10" stroke-width="4"/>
      <path id="Path_115" data-name="Path 115" d="M468.5,356.662s-4.256-21.754,9.1-35.113,15.488-25.3,65.26-19.625c49.773,5.557,44.216,5.557,44.216,5.557" transform="translate(-72.948 -267.822)" fill="none" stroke="#fff" stroke-linecap="round" stroke-linejoin="round" stroke-miterlimit="10" stroke-width="2"/>
      <path id="Path_116" data-name="Path 116" d="M542.006,302.8a310.206,310.206,0,0,0-49.064-6.975c-26.01-1.419-93.28,6.975-120.708,10.522-27.31,3.547-69.4,6.266-100.965,21.754s-40.67,23.882-40.67,23.882" transform="translate(-116.189 -268.699)" fill="none" stroke="#33dee6" stroke-linecap="round" stroke-linejoin="round" stroke-miterlimit="10" stroke-width="4"/>
      <path id="Path_117" data-name="Path 117" d="M282.3,318.889s-.828-7.33,13.241-20.689" transform="translate(-106.768 -268.236)" fill="none" stroke="#33dee6" stroke-linecap="round" stroke-linejoin="round" stroke-miterlimit="10" stroke-width="4"/>
      <path id="Path_118" data-name="Path 118" d="M689.9,527.957c9.458-21.754,13.123-43.034,19.389-54.857" transform="translate(-32.479 -236.36)" fill="none" stroke="#fff" stroke-linecap="round" stroke-linejoin="round" stroke-miterlimit="10" stroke-width="2"/>
      <path id="Path_119" data-name="Path 119" d="M444.5,606.981c12.059-1.182,24.827-1.892,28.965-.828,8.394,2.128,40.669,11.941,58.167,2.837s44.926-14.069,44.926-14.069,6.976,1.419,28.02-8.394,39.251-21.044,41.379-21.754,49.064,9.1,72.236-20.335c2.01-2.6,4.02-5.32,5.793-8.039" transform="translate(-77.204 -224.823)" fill="none" stroke="#fff" stroke-linecap="round" stroke-linejoin="round" stroke-miterlimit="10" stroke-width="2"/>
      <path id="Path_120" data-name="Path 120" d="M340.3,586.5s26.6,29.438,36.532,28.019c7.8-1.064,41.024-7.921,55.566-11.468" transform="translate(-96.195 -215.692)" fill="none" stroke="#fff" stroke-linecap="round" stroke-linejoin="round" stroke-miterlimit="10" stroke-width="2"/>
      <path id="Path_121" data-name="Path 121" d="M385.832,607.3s-14.069,28.019-1.419,66.679c12.65,38.542,28.019,63.133,28.019,63.133" transform="translate(-89.117 -211.902)" fill="none" stroke="#fff" stroke-linecap="round" stroke-linejoin="round" stroke-miterlimit="10" stroke-width="2"/>
      <path id="Path_122" data-name="Path 122" d="M495,662.443c6.857,1.537,11.586,2.01,21.872-2.956C537.206,649.675,553.995,644,566.645,644s23.882,9.1,42.088,11.231,63.132-3.547,72.236,5.557,19.625,35.113,30.148,39.251" transform="translate(-68.001 -205.213)" fill="none" stroke="#fff" stroke-linecap="round" stroke-linejoin="round" stroke-miterlimit="10" stroke-width="2"/>
      <path id="Path_123" data-name="Path 123" d="M414.4,679.679s26.6-22.463,62.423-23.172c4.729-.118,8.749,0,12.3.236" transform="translate(-82.69 -202.942)" fill="none" stroke="#fff" stroke-linecap="round" stroke-linejoin="round" stroke-miterlimit="10" stroke-width="2"/>
      <path id="Path_124" data-name="Path 124" d="M719.833,653c-9.813,4.256-23.881,13.36-23.881,13.36s44.926,25.3,45.635,41.379-32.276,16.079-32.276,16.079-8.512,3.192-59.467-13.241-60.768-23.054-101.91-16.433S505.254,703.955,482.2,717.2" transform="translate(-70.333 -203.573)" fill="none" stroke="#33dee6" stroke-linecap="round" stroke-linejoin="round" stroke-miterlimit="10" stroke-width="4"/>
      <path id="Path_125" data-name="Path 125" d="M781.3,676.4c18.325.709,34.4-.473,37.6,6.029,4.965,9.813,3.547,16.788,3.547,16.788s62.423,27.31,61,36.532" transform="translate(-15.821 -199.308)" fill="none" stroke="#fff" stroke-linecap="round" stroke-linejoin="round" stroke-miterlimit="10" stroke-width="2"/>
      <path id="Path_126" data-name="Path 126" d="M605.5,628.362s33.694-12.65,60.295-13.36,82.758,18.916,87.014,30.857,4.256,30.148,31.566,37.832a73.411,73.411,0,0,0,7.33,1.655" transform="translate(-47.861 -210.501)" fill="none" stroke="#fff" stroke-linecap="round" stroke-linejoin="round" stroke-miterlimit="10" stroke-width="2"/>
      <path id="Path_127" data-name="Path 127" d="M884.933,740.078s13.359-7.685,5.557-23.172c-7.685-15.488-28.02-42.8-58.167-60.3s-55.448-17.5-55.448-17.5,4.965-37.832,0-56.866C771.91,563.331,769.9,552.1,769.9,552.1" transform="translate(-17.899 -221.962)" fill="none" stroke="#33dee6" stroke-linecap="round" stroke-linejoin="round" stroke-miterlimit="10" stroke-width="4"/>
      <path id="Path_128" data-name="Path 128" d="M778.2,594.11s9.1-18.207,23.882-26.01" transform="translate(-16.386 -219.046)" fill="none" stroke="#fff" stroke-linecap="round" stroke-linejoin="round" stroke-miterlimit="10" stroke-width="2"/>
      <path id="Path_129" data-name="Path 129" d="M732.035,540.2s4.965,34.4,4.256,39.251c-.709,4.965-11.231,11.231-15.487,31.566s-9.1,28.729-9.1,28.729,2.837,5.557,14.069,3.547c11.231-2.128,32.275-30.857,32.275-30.857" transform="translate(-28.506 -224.131)" fill="none" stroke="#fff" stroke-linecap="round" stroke-linejoin="round" stroke-miterlimit="10" stroke-width="2"/>
      <path id="Path_130" data-name="Path 130" d="M864.926,613.1c-.828,12.059-3.665,22.226-8.276,27.547A67.786,67.786,0,0,0,844,663.819" transform="translate(-4.394 -210.844)" fill="none" stroke="#fff" stroke-linecap="round" stroke-linejoin="round" stroke-miterlimit="10" stroke-width="2"/>
      <path id="Path_131" data-name="Path 131" d="M755.994,531.722c-7.685-5.911-12.769-17.379-3.074-29.556,13.36-16.788,36.532-30.148,38.541-32.985s-.709-19.625,8.394-23.882,35.822,13.359,48.354,31.566c12.65,18.207,15.487,38.542,14.069,47.645s10.522,54.029,16.788,79.92a132.643,132.643,0,0,1,3.192,19.389" transform="translate(-21.963 -241.544)" fill="none" stroke="#33dee6" stroke-linecap="round" stroke-linejoin="round" stroke-miterlimit="10" stroke-width="6"/>
      <path id="Path_132" data-name="Path 132" d="M826.756,511.834s-5.557-9.1-18.207-2.128c-8.985,4.965-23.645,10.995-35.349,13.6" transform="translate(-17.297 -230.168)" fill="none" stroke="#fff" stroke-linecap="round" stroke-linejoin="round" stroke-miterlimit="10" stroke-width="2"/>
      <path id="Path_133" data-name="Path 133" d="M823.193,521.8s9.813,31.566,11.941,57.576-3.547,36.532-3.547,36.532L816.1,615.2" transform="translate(-9.479 -227.484)" fill="none" stroke="#fff" stroke-linecap="round" stroke-linejoin="round" stroke-miterlimit="10" stroke-width="2"/>
      <line id="Line_1" data-name="Line 1" x2="18.207" y2="10.522" transform="translate(822.109 388.305)" fill="none" stroke="#fff" stroke-linecap="round" stroke-linejoin="round" stroke-miterlimit="10" stroke-width="2"/>
      <path id="Path_134" data-name="Path 134" d="M641.1,358.7s2.128-35.822,44.216-25.3,40.67,73.654,40.67,73.654" transform="translate(-41.373 -262.174)" fill="none" stroke="#fff" stroke-linecap="round" stroke-linejoin="round" stroke-miterlimit="10" stroke-width="2"/>
      <path id="Path_135" data-name="Path 135" d="M708.1,372.5s11.231-11.941,34.4-8.394,32.985,12.65,32.985,12.65" transform="translate(-29.162 -256.346)" fill="none" stroke="#fff" stroke-linecap="round" stroke-linejoin="round" stroke-miterlimit="10" stroke-width="2"/>
      <path id="Path_136" data-name="Path 136" d="M749.7,375.3l33.694,30.857s5.557-2.837,16.079-2.128" transform="translate(-21.58 -254.185)" fill="none" stroke="#fff" stroke-linecap="round" stroke-linejoin="round" stroke-miterlimit="10" stroke-width="2"/>
      <path id="Path_137" data-name="Path 137" d="M203.548,396.69s-10.4,11.941-17.143,20.926a79.44,79.44,0,0,0-9.694,16.433s-27.665,17.97-34.4,38.069c-6.739,20.217-10.4,32.867-7.448,53.083a178.976,178.976,0,0,0,10.4,38.069s.709,19.389,32.157,31.33c31.33,11.941,123.191,47.054,127.684,50.837s38.069,26.837,38.069,26.837l7.448,38.069s4.493,47.054,11.941,59.7,19.389,46.344,43.271,58.995,53.793,11.941,72.472,7.448,31.33-10.4,73.891-24.591,58.285-17.97,61.241-18.68,103.8,20.926,131.467,15.724,38.9-15.724,38.9-15.724,14.187,26.837,35.113,39.606c20.926,12.65,76.965,41.024,83.7,46.344,6.739,5.2,14.9,21.635,34.4,18.68,19.389-2.956,29.911-28.374,32.157-31.33s29.911-36.65,38.069-53.083a155.182,155.182,0,0,0,11.231-29.083s25.419-26.128,20.217-70.226-11.231-81.457-22.463-113.5c-11.231-32.157-17.143-44.1-17.143-44.1s-7.448-70.935-41.852-103.8-54.5-42.561-54.5-42.561-23.882-36.65-56.748-50.009c-32.867-13.478-82.167-51.546-105.339-60.531S704,297.381,704,297.381s-63.487-20.217-110.541-20.217H546.4s-46.344-9.695-93.4,0-96.354,2.246-130.757,17.143-70.935,50.009-70.935,50.009S212.533,369.025,203.548,396.69Z" transform="translate(-133.826 -272.856)" fill="none" stroke="#fff" stroke-miterlimit="10" stroke-width="2"/>
    </g>
  </g>
</svg>
