<svg xmlns="http://www.w3.org/2000/svg" width="42.249" height="46.08" viewBox="0 0 42.249 46.08">
  <g id="XMLID_4535_" transform="translate(-6.877 -4.96)">
    <path id="XMLID_8_" d="M43.3,51.04a1,1,0,0,1-1-1V40.065A10.111,10.111,0,0,1,44.059,34.3a17.484,17.484,0,0,0-21.9-25.671,17.579,17.579,0,0,0-9.909,14.056,18,18,0,0,0-.079,2.1,13.6,13.6,0,0,1-1.141,5.581L8.9,35.4a.328.328,0,0,0,.007.275.336.336,0,0,0,.216.18l2.532.7a2.335,2.335,0,0,1,1.694,1.957l1.091,6.8a1.026,1.026,0,0,1,.013.156,1.816,1.816,0,0,0,1.813,1.809h6.345a4.422,4.422,0,0,0,4.417-4.417,1,1,0,0,1,2,0,6.424,6.424,0,0,1-6.417,6.417H16.268a3.82,3.82,0,0,1-3.812-3.72L11.372,38.8a.354.354,0,0,0-.25-.315l-2.532-.7a2.337,2.337,0,0,1-1.529-3.162l2.126-5.035a11.586,11.586,0,0,0,.984-4.76,20.268,20.268,0,0,1,.087-2.333A19.593,19.593,0,0,1,21.3,6.827,19.28,19.28,0,0,1,29.584,4.96,19.462,19.462,0,0,1,45.708,35.438,8.114,8.114,0,0,0,44.3,40.066v9.975A1,1,0,0,1,43.3,51.04Z" fill="#fff"/>
    <path id="XMLID_7_" d="M39.432,23.945a1,1,0,0,1-.847-1.529,4.141,4.141,0,0,0-3.515-6.33,4.285,4.285,0,0,0-.635.048,1,1,0,0,1-1.066-.582,4.913,4.913,0,0,0-9.433,1.942,4.907,4.907,0,0,0,.039.621,1,1,0,1,1-1.984.25,6.911,6.911,0,0,1,12.877-4.276c.067,0,.136,0,.2,0a6.141,6.141,0,0,1,5.212,9.389,1,1,0,0,1-.851.47Z" fill="#fff"/>
    <path id="XMLID_6_" d="M22.24,27.8a6.141,6.141,0,1,1,0-12.282c.1,0,.21,0,.315.008a1,1,0,1,1-.1,2c-.071,0-.143,0-.215,0a4.141,4.141,0,0,0,0,8.282,1,1,0,1,1,0,2Z" fill="#fff"/>
    <path id="XMLID_5_" d="M38.172,30.629a5.268,5.268,0,0,1-5.261-5.261,1,1,0,1,1,2,0,3.261,3.261,0,1,0,4.924-2.806,1,1,0,0,1,1.023-1.719,5.262,5.262,0,0,1-2.686,9.786Z" fill="#fff"/>
    <path id="XMLID_4_" d="M32.876,26.25a3.933,3.933,0,0,1-3.172-1.6,1,1,0,1,1,1.609-1.187,1.934,1.934,0,0,0,3.46-1.5,1,1,0,1,1,1.967-.36,3.931,3.931,0,0,1-3.864,4.641Z" fill="#fff"/>
    <path id="XMLID_3_" d="M32.057,21.7a.959.959,0,0,1-.151-.011,1,1,0,0,1-.838-1.139,1.934,1.934,0,0,0-3.5-1.389,1,1,0,1,1-1.645-1.137,3.934,3.934,0,0,1,7.127,2.824,1,1,0,0,1-.989.852Z" fill="#fff"/>
    <path id="XMLID_2_" d="M31.864,37.443a1,1,0,0,1-1-1v-2.85a2.452,2.452,0,0,0-2.449-2.449H26.248a4.313,4.313,0,1,1,0-8.626,1,1,0,0,1,0,2,2.313,2.313,0,0,0,0,4.626h2.167a4.454,4.454,0,0,1,4.449,4.449v2.85a1,1,0,0,1-1,1Z" fill="#fff"/>
  </g>
</svg>
