<svg id="global-network" xmlns="http://www.w3.org/2000/svg" width="24" height="24" viewBox="0 0 23.273 23.273">
  <g id="Group_2743" data-name="Group 2743">
    <path id="Path_190" data-name="Path 190" d="M11.637,0A11.637,11.637,0,1,0,23.273,11.637,11.65,11.65,0,0,0,11.637,0ZM8.861,1.261A9.3,9.3,0,0,0,6.847,4.466,10.72,10.72,0,0,1,4.938,3.248,10.716,10.716,0,0,1,8.861,1.261ZM4.255,3.845A11.623,11.623,0,0,0,6.538,5.313,20.112,20.112,0,0,0,5.6,11.189H.906A10.711,10.711,0,0,1,4.255,3.845ZM.906,12.084H5.6a20.105,20.105,0,0,0,.938,5.877A11.621,11.621,0,0,0,4.256,19.43,10.711,10.711,0,0,1,.906,12.084ZM4.94,20.026a10.713,10.713,0,0,1,1.908-1.218,9.292,9.292,0,0,0,2.014,3.2A10.712,10.712,0,0,1,4.94,20.026Zm6.25,2.307c-1.39-.264-2.642-1.737-3.5-3.9a10.731,10.731,0,0,1,3.5-.745Zm0-5.539a11.615,11.615,0,0,0-3.807.8A19.245,19.245,0,0,1,6.5,12.084h4.694Zm0-5.6H6.5a19.254,19.254,0,0,1,.886-5.507,11.623,11.623,0,0,0,3.807.8v4.71Zm0-5.6a10.73,10.73,0,0,1-3.5-.745C8.547,2.677,9.8,1.2,11.189.94Zm11.178,5.6H17.673a20.11,20.11,0,0,0-.938-5.876,11.622,11.622,0,0,0,2.284-1.469A10.711,10.711,0,0,1,22.367,11.189ZM18.335,3.248a10.711,10.711,0,0,1-1.909,1.218,9.289,9.289,0,0,0-2.014-3.205A10.712,10.712,0,0,1,18.335,3.248ZM12.084.94c1.39.264,2.642,1.737,3.5,3.9a10.731,10.731,0,0,1-3.5.745Zm0,5.539a11.622,11.622,0,0,0,3.807-.8,19.255,19.255,0,0,1,.886,5.507H12.084Zm0,5.6h4.694a19.256,19.256,0,0,1-.886,5.507,11.615,11.615,0,0,0-3.807-.8Zm0,10.249V17.689a10.718,10.718,0,0,1,3.5.745C14.726,20.6,13.474,22.07,12.084,22.333Zm2.328-.32a9.292,9.292,0,0,0,2.014-3.2,10.7,10.7,0,0,1,1.908,1.218A10.714,10.714,0,0,1,14.412,22.013Zm4.606-2.583a11.588,11.588,0,0,0-2.283-1.469,20.1,20.1,0,0,0,.938-5.876h4.694A10.711,10.711,0,0,1,19.018,19.43Z" fill="#fff"/>
  </g>
</svg>
