<svg xmlns="http://www.w3.org/2000/svg" xmlns:xlink="http://www.w3.org/1999/xlink" width="409" height="377" viewBox="0 0 409 377">
  <defs>
    <clipPath id="clip-path">
      <rect id="Rectangle_430" data-name="Rectangle 430" width="409" height="377" transform="translate(1023.571 252.052)" fill="#33dce4" stroke="#fff" stroke-width="1"/>
    </clipPath>
  </defs>
  <g id="Mask_Group_28" data-name="Mask Group 28" transform="translate(-1023.571 -252.052)" opacity="0.38" clip-path="url(#clip-path)">
    <g id="Pattern-01" transform="translate(1023.887 258.671)">
      <g id="Group_2893" data-name="Group 2893" transform="translate(0 0)">
        <path id="Path_29953" data-name="Path 29953" d="M492.957,593.513A100.957,100.957,0,1,1,593.913,492.557,101.078,101.078,0,0,1,492.957,593.513Zm0-195.16a94.2,94.2,0,1,0,94.2,94.2A94.309,94.309,0,0,0,492.957,398.353Z" transform="translate(-214.303 -213.903)" fill="#33dce4" opacity="0.05"/>
        <path id="Path_29954" data-name="Path 29954" d="M481.482,606.664A125.582,125.582,0,1,1,607.064,481.082,125.736,125.736,0,0,1,481.482,606.664Zm0-244.411A118.829,118.829,0,1,0,600.311,481.082,118.967,118.967,0,0,0,481.482,362.253Z" transform="translate(-202.828 -202.428)" fill="#33dce4" opacity="0.1"/>
        <path id="Path_29955" data-name="Path 29955" d="M471.279,618.457c-81.311,0-147.479-66.168-147.479-147.479S389.967,323.5,471.279,323.5s147.479,66.168,147.479,147.479S552.59,618.457,471.279,618.457Zm0-288.272c-77.627,0-140.725,63.166-140.725,140.725s63.1,140.725,140.725,140.725S612,548.47,612,470.91,548.906,330.185,471.279,330.185Z" transform="translate(-192.625 -192.256)" fill="#33dce4" opacity="0.15"/>
        <path id="Path_29956" data-name="Path 29956" d="M461.2,629.9c-93.248,0-169.1-75.854-169.1-169.1s75.854-169.1,169.1-169.1,169.1,75.854,169.1,169.1S554.451,629.9,461.2,629.9Zm0-331.383c-89.5,0-162.349,72.784-162.349,162.349S371.637,623.22,461.2,623.22s162.349-72.852,162.349-162.349S550.7,298.521,461.2,298.521Z" transform="translate(-182.548 -182.148)" fill="#33dce4" opacity="0.2"/>
        <path id="Path_29957" data-name="Path 29957" d="M451.126,641.484c-105.118,0-190.726-85.54-190.726-190.726S346.009,260.1,451.126,260.1s190.726,85.54,190.726,190.726S556.244,641.484,451.126,641.484Zm0-374.631c-101.434,0-183.9,82.539-183.9,183.9s82.539,183.9,183.9,183.9,183.9-82.539,183.9-183.9S552.56,266.853,451.126,266.853Z" transform="translate(-172.472 -172.104)" fill="#33dce4" opacity="0.25"/>
        <path id="Path_29958" data-name="Path 29958" d="M440.669,653.437C323.136,653.437,227.5,557.8,227.5,440.269S323.136,227.1,440.669,227.1s213.168,95.636,213.168,213.169S558.2,653.437,440.669,653.437Zm0-419.584c-113.781,0-206.415,92.566-206.415,206.415S326.82,646.684,440.669,646.684s206.415-92.567,206.415-206.416C647.084,326.488,554.518,233.853,440.669,233.853Z" transform="translate(-162.015 -161.615)" fill="#33dce4" opacity="0.3"/>
        <path id="Path_29959" data-name="Path 29959" d="M430.592,664.985c-129.47,0-234.792-105.322-234.792-234.792S301.122,195.4,430.592,195.4,665.385,300.722,665.385,430.192,560.063,664.985,430.592,664.985Zm0-462.763c-125.718,0-227.971,102.253-227.971,227.971S304.874,658.232,430.592,658.232,658.563,555.979,658.563,430.261,556.311,202.221,430.592,202.221Z" transform="translate(-151.938 -151.538)" fill="#33dce4" opacity="0.35"/>
        <path id="Path_29960" data-name="Path 29960" d="M420.675,676.35c-141.2,0-256.075-114.872-256.075-256.075S279.472,164.2,420.675,164.2,676.75,279.072,676.75,420.275,561.878,676.35,420.675,676.35Zm0-505.4c-137.451,0-249.322,111.871-249.322,249.322S283.224,669.6,420.675,669.6,670,557.726,670,420.275,558.126,170.953,420.675,170.953Z" transform="translate(-142.021 -141.621)" fill="#33dce4" opacity="0.6"/>
        <path id="Path_29961" data-name="Path 29961" d="M410.154,688.476C256.468,688.476,131.5,563.44,131.5,409.822S256.468,131.1,410.154,131.1,688.808,256.136,688.808,409.754,563.84,688.476,410.154,688.476Zm0-550.623c-149.934,0-271.9,121.967-271.9,271.9s121.967,271.9,271.9,271.9,271.9-121.967,271.9-271.9S560.088,137.853,410.154,137.853Z" transform="translate(-131.5 -131.1)" fill="#33dce4"/>
      </g>
    </g>
  </g>
</svg>
