<svg xmlns="http://www.w3.org/2000/svg" xmlns:xlink="http://www.w3.org/1999/xlink" width="833" height="779" viewBox="0 0 833 779">
  <defs>
    <clipPath id="clip-path">
      <rect id="Rectangle_431" data-name="Rectangle 431" width="833" height="779" fill="#0b3f51" stroke="#fff" stroke-width="1"/>
    </clipPath>
  </defs>
  <g id="Mask_Group_29" data-name="Mask Group 29" opacity="0.15" clip-path="url(#clip-path)">
    <g id="Pattern-01" transform="translate(-302.698 -386.692)">
      <g id="Group_2895" data-name="Group 2895">
        <path id="Path_29962" data-name="Path 29962" d="M597.615,391.6c113.366,0,205.615,93.665,205.615,208.771S710.982,809.141,597.615,809.141,392,715.477,392,600.371,484.249,391.6,597.615,391.6Zm0,403.576c105.725,0,191.861-87.317,191.861-194.805S703.34,405.565,597.615,405.565,405.754,493.023,405.754,600.371,491.89,795.176,597.615,795.176Z" transform="translate(-30.089 -23.995)" fill="#0b3f51" opacity="0.05"/>
        <path id="Path_29963" data-name="Path 29963" d="M611.669,355.5c141.013,0,255.769,116.516,255.769,259.694S752.682,874.887,611.669,874.887,355.9,758.371,355.9,615.194,470.656,355.5,611.669,355.5Zm0,505.422c133.372,0,242.015-110.169,242.015-245.729S745.041,369.465,611.669,369.465,369.654,479.634,369.654,615.194,478.3,860.922,611.669,860.922Z" transform="translate(-44.143 -38.818)" fill="#0b3f51" opacity="0.1"/>
        <path id="Path_29964" data-name="Path 29964" d="M624.165,323.5c165.6,0,300.365,136.83,300.365,304.974S789.769,933.449,624.165,933.449,323.8,796.62,323.8,628.474,458.561,323.5,624.165,323.5Zm0,596.125c158.1,0,286.611-130.623,286.611-291.009S782.266,337.606,624.165,337.606,337.554,468.229,337.554,628.616,466.063,919.625,624.165,919.625Z" transform="translate(-56.639 -52.24)" fill="#0b3f51" opacity="0.15"/>
        <path id="Path_29965" data-name="Path 29965" d="M636.506,291.7c189.916,0,344.406,156.86,344.406,349.691s-154.489,349.69-344.406,349.69S292.1,834.221,292.1,641.391,446.589,291.7,636.506,291.7Zm0,685.275c182.275,0,330.652-150.512,330.652-335.726S818.92,305.524,636.506,305.524,305.854,456.177,305.854,641.249,454.23,976.975,636.506,976.975Z" transform="translate(-68.98 -65.015)" fill="#0b3f51" opacity="0.2"/>
        <path id="Path_29966" data-name="Path 29966" d="M648.846,260.1c214.09,0,388.446,176.891,388.446,394.407s-174.356,394.266-388.446,394.266S260.4,871.882,260.4,654.366,434.756,260.1,648.846,260.1Zm0,774.708c206.588,0,374.553-170.684,374.553-380.3s-168.1-380.3-374.553-380.3S274.293,444.89,274.293,654.507,442.258,1034.808,648.846,1034.808Z" transform="translate(-81.321 -78.131)" fill="#0b3f51" opacity="0.25"/>
        <path id="Path_29967" data-name="Path 29967" d="M661.654,227.1c239.375,0,434.154,197.768,434.154,440.816s-194.779,440.816-434.154,440.816S227.5,910.964,227.5,667.916,422.279,227.1,661.654,227.1Zm0,867.667c231.734,0,420.4-191.42,420.4-426.851s-188.527-426.851-420.4-426.851-420.4,191.42-420.4,426.851C241.254,903.206,429.781,1094.767,661.654,1094.767Z" transform="translate(-94.128 -91.54)" fill="#0b3f51" opacity="0.3"/>
        <path id="Path_29968" data-name="Path 29968" d="M673.994,195.4c263.688,0,478.195,217.8,478.195,485.532s-214.507,485.532-478.195,485.532S195.8,948.666,195.8,680.932,410.307,195.4,673.994,195.4Zm0,956.958c256.047,0,464.3-211.451,464.3-471.426s-208.255-471.568-464.3-471.568-464.3,211.451-464.3,471.426S417.948,1152.358,673.994,1152.358Z" transform="translate(-106.469 -104.557)" fill="#0b3f51" opacity="0.35"/>
        <path id="Path_29969" data-name="Path 29969" d="M686.14,164.2c287.584,0,521.54,237.547,521.54,529.544s-233.957,529.543-521.54,529.543S164.6,985.74,164.6,693.744,398.557,164.2,686.14,164.2Zm0,1045.122c279.943,0,507.786-231.34,507.786-515.578S966.083,178.165,686.14,178.165,178.354,409.505,178.354,693.744,406.2,1209.322,686.14,1209.322Z" transform="translate(-118.614 -117.368)" fill="#0b3f51" opacity="0.6"/>
        <path id="Path_29970" data-name="Path 29970" d="M699.026,131.1c313.008,0,567.526,258.565,567.526,576.235S1012.033,1283.71,699.026,1283.71,131.5,1025.145,131.5,707.476,386.018,131.1,699.026,131.1Zm0,1138.645c305.367,0,553.772-252.217,553.772-562.27s-248.405-562.27-553.772-562.27S145.254,397.423,145.254,707.476,393.659,1269.745,699.026,1269.745Z" transform="translate(-131.5 -131.1)" fill="#0b3f51"/>
      </g>
    </g>
  </g>
</svg>
