<svg xmlns="http://www.w3.org/2000/svg" xmlns:xlink="http://www.w3.org/1999/xlink" width="409" height="377" viewBox="0 0 409 377">
  <defs>
    <clipPath id="clip-path">
      <rect id="Rectangle_431" data-name="Rectangle 431" width="409" height="377" transform="translate(0)" fill="#33dce4" stroke="#fff" stroke-width="1"/>
    </clipPath>
  </defs>
  <g id="Mask_Group_29" data-name="Mask Group 29" transform="translate(0)" opacity="0.38" clip-path="url(#clip-path)">
    <g id="Pattern-01" transform="translate(-148.624 -186.996)">
      <g id="Group_2895" data-name="Group 2895">
        <path id="Path_29962" data-name="Path 29962" d="M492.957,391.6A100.957,100.957,0,1,1,392,492.557,101.078,101.078,0,0,1,492.957,391.6Zm0,195.16a94.2,94.2,0,1,0-94.2-94.2A94.309,94.309,0,0,0,492.957,586.76Z" transform="translate(-214.303 -213.835)" fill="#33dce4" opacity="0.05"/>
        <path id="Path_29963" data-name="Path 29963" d="M481.482,355.5A125.582,125.582,0,1,1,355.9,481.082,125.736,125.736,0,0,1,481.482,355.5Zm0,244.411A118.829,118.829,0,1,0,362.653,481.082,118.967,118.967,0,0,0,481.482,599.911Z" transform="translate(-202.828 -202.36)" fill="#33dce4" opacity="0.1"/>
        <path id="Path_29964" data-name="Path 29964" d="M471.279,323.5c81.311,0,147.479,66.168,147.479,147.479S552.59,618.457,471.279,618.457,323.8,552.29,323.8,470.979,389.967,323.5,471.279,323.5Zm0,288.272C548.906,611.772,612,548.606,612,471.047s-63.1-140.725-140.725-140.725S330.553,393.488,330.553,471.047,393.651,611.772,471.279,611.772Z" transform="translate(-192.625 -192.325)" fill="#33dce4" opacity="0.15"/>
        <path id="Path_29965" data-name="Path 29965" d="M461.2,291.7c93.248,0,169.1,75.854,169.1,169.1S554.451,629.9,461.2,629.9,292.1,554.051,292.1,460.8,367.954,291.7,461.2,291.7Zm0,331.383c89.5,0,162.349-72.784,162.349-162.349S550.767,298.385,461.2,298.385,298.853,371.237,298.853,460.734,371.706,623.083,461.2,623.083Z" transform="translate(-182.549 -182.08)" fill="#33dce4" opacity="0.2"/>
        <path id="Path_29966" data-name="Path 29966" d="M451.126,260.1c105.118,0,190.726,85.54,190.726,190.726S556.244,641.484,451.126,641.484,260.4,555.944,260.4,450.758,346.008,260.1,451.126,260.1Zm0,374.631c101.434,0,183.9-82.539,183.9-183.9s-82.539-183.9-183.9-183.9-183.9,82.539-183.9,183.9S349.692,634.731,451.126,634.731Z" transform="translate(-172.472 -172.104)" fill="#33dce4" opacity="0.25"/>
        <path id="Path_29967" data-name="Path 29967" d="M440.668,227.1c117.533,0,213.169,95.636,213.169,213.168S558.2,653.437,440.668,653.437,227.5,557.8,227.5,440.268,323.136,227.1,440.668,227.1Zm0,419.584c113.781,0,206.415-92.566,206.415-206.415S554.518,233.853,440.668,233.853,234.253,326.419,234.253,440.268C234.253,554.049,326.82,646.684,440.668,646.684Z" transform="translate(-162.015 -161.546)" fill="#33dce4" opacity="0.3"/>
        <path id="Path_29968" data-name="Path 29968" d="M430.592,195.4c129.47,0,234.792,105.322,234.792,234.792S560.062,664.985,430.592,664.985,195.8,559.662,195.8,430.192,301.122,195.4,430.592,195.4Zm0,462.763c125.718,0,227.971-102.253,227.971-227.971S556.311,202.153,430.592,202.153,202.621,304.406,202.621,430.124,304.874,658.163,430.592,658.163Z" transform="translate(-151.938 -151.47)" fill="#33dce4" opacity="0.35"/>
        <path id="Path_29969" data-name="Path 29969" d="M420.675,164.2c141.2,0,256.075,114.872,256.075,256.075S561.878,676.35,420.675,676.35,164.6,561.478,164.6,420.275,279.472,164.2,420.675,164.2Zm0,505.4C558.126,669.6,670,557.726,670,420.275S558.126,170.953,420.675,170.953,171.353,282.824,171.353,420.275,283.224,669.6,420.675,669.6Z" transform="translate(-142.021 -141.553)" fill="#33dce4" opacity="0.6"/>
        <path id="Path_29970" data-name="Path 29970" d="M410.154,131.1c153.686,0,278.654,125.036,278.654,278.654S563.84,688.476,410.154,688.476,131.5,563.44,131.5,409.822,256.468,131.1,410.154,131.1Zm0,550.623c149.934,0,271.9-121.967,271.9-271.9s-121.967-271.9-271.9-271.9-271.9,121.967-271.9,271.9S260.22,681.723,410.154,681.723Z" transform="translate(-131.5 -131.1)" fill="#33dce4"/>
      </g>
    </g>
  </g>
</svg>
