<svg xmlns="http://www.w3.org/2000/svg" xmlns:xlink="http://www.w3.org/1999/xlink" width="473" height="436" viewBox="0 0 473 436">
  <defs>
    <clipPath id="clip-path">
      <rect id="Rectangle_291" data-name="Rectangle 291" width="473" height="436" transform="translate(0 0.276)" fill="#33dce4" stroke="#fff" stroke-width="1"/>
    </clipPath>
  </defs>
  <g id="Mask_Group_6" data-name="Mask Group 6" transform="translate(0 -0.276)" clip-path="url(#clip-path)">
    <g id="Pattern-01" transform="translate(-0.314 7.323)">
      <g id="Group_2755" data-name="Group 2755" transform="translate(0)">
        <path id="Path_202" data-name="Path 202" d="M508.922,625.444A116.922,116.922,0,1,1,625.844,508.522,117.062,117.062,0,0,1,508.922,625.444Zm0-226.023a109.1,109.1,0,1,0,109.1,109.1A109.223,109.223,0,0,0,508.922,399.421Z" transform="translate(-186.201 -185.801)" fill="#33dce4" opacity="0.05"/>
        <path id="Path_203" data-name="Path 203" d="M501.342,646.383c-80.186,0-145.442-65.255-145.442-145.442S421.155,355.5,501.342,355.5s145.442,65.255,145.442,145.442S581.528,646.383,501.342,646.383Zm0-283.062c-75.841,0-137.62,61.7-137.62,137.621S425.5,638.562,501.342,638.562s137.621-61.7,137.621-137.621S577.183,363.321,501.342,363.321Z" transform="translate(-178.621 -178.221)" fill="#33dce4" opacity="0.1"/>
        <path id="Path_204" data-name="Path 204" d="M494.6,665.1c-94.17,0-170.8-76.632-170.8-170.8s76.631-170.8,170.8-170.8,170.8,76.631,170.8,170.8S588.771,665.1,494.6,665.1Zm0-333.86c-89.9,0-162.98,73.155-162.98,162.98S404.7,657.2,494.6,657.2s162.98-73.155,162.98-162.98S584.5,331.242,494.6,331.242Z" transform="translate(-171.88 -171.501)" fill="#33dce4" opacity="0.15"/>
        <path id="Path_205" data-name="Path 205" d="M487.945,683.389C379.95,683.389,292.1,595.54,292.1,487.544S379.95,291.7,487.945,291.7s195.845,87.85,195.845,195.844S595.94,683.389,487.945,683.389Zm0-383.789c-103.65,0-188.023,84.294-188.023,188.023s84.294,188.023,188.023,188.023,188.023-84.374,188.023-188.023S591.594,299.6,487.945,299.6Z" transform="translate(-165.224 -164.824)" fill="#33dce4" opacity="0.2"/>
        <path id="Path_206" data-name="Path 206" d="M481.288,701.8C359.547,701.8,260.4,602.729,260.4,480.909S359.547,260.1,481.288,260.1s220.888,99.068,220.888,220.888S603.029,701.8,481.288,701.8Zm0-433.876c-117.475,0-212.988,95.592-212.988,212.988S363.892,693.9,481.288,693.9s212.988-95.592,212.988-212.988S598.763,267.921,481.288,267.921Z" transform="translate(-158.567 -158.188)" fill="#33dce4" opacity="0.25"/>
        <path id="Path_207" data-name="Path 207" d="M474.379,720.859C338.26,720.859,227.5,610.1,227.5,473.979S338.26,227.1,474.379,227.1,721.259,337.86,721.259,473.979,610.5,720.859,474.379,720.859Zm0-485.938c-131.774,0-239.058,107.2-239.058,239.058s107.2,239.058,239.058,239.058S713.438,605.833,713.438,473.979C713.438,342.2,606.233,234.921,474.379,234.921Z" transform="translate(-151.659 -151.259)" fill="#33dce4" opacity="0.3"/>
        <path id="Path_208" data-name="Path 208" d="M467.723,739.246c-149.945,0-271.923-121.978-271.923-271.923S317.778,195.4,467.723,195.4,739.646,317.378,739.646,467.323,617.668,739.246,467.723,739.246Zm0-535.945c-145.6,0-264.023,118.423-264.023,264.023s118.423,264.1,264.023,264.1S731.746,613,731.746,467.4,613.322,203.3,467.723,203.3Z" transform="translate(-145.002 -144.602)" fill="#33dce4" opacity="0.35"/>
        <path id="Path_209" data-name="Path 209" d="M461.171,757.343C297.638,757.343,164.6,624.3,164.6,460.771S297.638,164.2,461.171,164.2,757.743,297.238,757.743,460.771,624.7,757.343,461.171,757.343Zm0-585.321c-159.188,0-288.75,129.562-288.75,288.75s129.562,288.75,288.75,288.75,288.75-129.563,288.75-288.75S620.359,172.021,461.171,172.021Z" transform="translate(-138.451 -138.051)" fill="#33dce4" opacity="0.6"/>
        <path id="Path_210" data-name="Path 210" d="M454.221,776.62C276.231,776.62,131.5,631.811,131.5,453.9S276.231,131.1,454.221,131.1,776.942,275.91,776.942,453.821,632.211,776.62,454.221,776.62Zm0-637.7c-173.645,0-314.9,141.255-314.9,314.9s141.255,314.9,314.9,314.9,314.9-141.255,314.9-314.9S627.866,138.921,454.221,138.921Z" transform="translate(-131.5 -131.1)" fill="#33dce4"/>
      </g>
    </g>
  </g>
</svg>
