<svg xmlns="http://www.w3.org/2000/svg" xmlns:xlink="http://www.w3.org/1999/xlink" width="322" height="297" viewBox="0 0 322 297">
  <defs>
    <clipPath id="clip-path">
      <rect id="Rectangle_291" data-name="Rectangle 291" width="322" height="297" fill="#33dce4" stroke="#fff" stroke-width="1"/>
    </clipPath>
  </defs>
  <g id="Mask_Group_6" data-name="Mask Group 6" opacity="0.32" clip-path="url(#clip-path)">
    <g id="Pattern-01" transform="translate(-0.214 -147.431)">
      <g id="Group_2755" data-name="Group 2755" transform="translate(0)">
        <path id="Path_202" data-name="Path 202" d="M471.6,391.6a79.6,79.6,0,1,0,79.6,79.6A79.691,79.691,0,0,0,471.6,391.6Zm0,153.868A74.272,74.272,0,1,1,545.868,471.2,74.355,74.355,0,0,1,471.6,545.468Z" transform="translate(-251.9 -251.447)" fill="#33dce4" opacity="0.05"/>
        <path id="Path_203" data-name="Path 203" d="M454.911,355.5a99.011,99.011,0,1,0,99.011,99.011A99.132,99.132,0,0,0,454.911,355.5Zm0,192.7A93.687,93.687,0,1,1,548.6,454.511,93.8,93.8,0,0,1,454.911,548.2Z" transform="translate(-235.215 -234.762)" fill="#33dce4" opacity="0.1"/>
        <path id="Path_204" data-name="Path 204" d="M440.075,323.5A116.275,116.275,0,1,0,556.349,439.775,116.416,116.416,0,0,0,440.075,323.5Zm0,227.279a110.95,110.95,0,1,1,110.95-110.95A111.079,111.079,0,0,1,440.075,550.779Z" transform="translate(-220.379 -220.079)" fill="#33dce4" opacity="0.15"/>
        <path id="Path_205" data-name="Path 205" d="M425.423,291.7C351.9,291.7,292.1,351.5,292.1,425.023s59.8,133.323,133.323,133.323,133.323-59.8,133.323-133.323S498.942,291.7,425.423,291.7Zm0,261.269a128,128,0,1,1,128-128C553.422,495.53,495.984,552.969,425.423,552.969Z" transform="translate(-205.728 -205.274)" fill="#33dce4" opacity="0.2"/>
        <path id="Path_206" data-name="Path 206" d="M410.772,260.1C327.9,260.1,260.4,327.542,260.4,410.472S327.9,560.79,410.772,560.79s150.372-67.441,150.372-150.372S493.649,260.1,410.772,260.1Zm0,295.366c-79.973,0-144.994-65.075-144.994-144.994s65.075-144.994,144.994-144.994,144.994,65.075,144.994,144.994S490.744,555.466,410.772,555.466Z" transform="translate(-191.076 -190.723)" fill="#33dce4" opacity="0.25"/>
        <path id="Path_207" data-name="Path 207" d="M395.566,227.1C302.9,227.1,227.5,302.5,227.5,395.166s75.4,168.066,168.066,168.066,168.066-75.4,168.066-168.066S488.231,227.1,395.566,227.1Zm0,330.807c-89.707,0-162.742-72.981-162.742-162.742s72.981-162.742,162.742-162.742,162.741,72.981,162.741,162.742C558.307,484.873,485.327,557.907,395.566,557.907Z" transform="translate(-175.87 -175.416)" fill="#33dce4" opacity="0.3"/>
        <path id="Path_208" data-name="Path 208" d="M380.915,195.4C278.838,195.4,195.8,278.438,195.8,380.514s83.038,185.114,185.115,185.114,185.115-83.038,185.115-185.114S482.991,195.4,380.915,195.4Zm0,364.851c-99.119,0-179.736-80.618-179.736-179.736s80.618-179.79,179.736-179.79,179.736,80.618,179.736,179.736S480.033,560.251,380.915,560.251Z" transform="translate(-161.219 -160.765)" fill="#33dce4" opacity="0.35"/>
        <path id="Path_209" data-name="Path 209" d="M366.494,164.2C255.167,164.2,164.6,254.767,164.6,366.094s90.567,201.894,201.894,201.894,201.894-90.567,201.894-201.894S477.821,164.2,366.494,164.2Zm0,398.464c-108.369,0-196.57-88.2-196.57-196.57s88.2-196.57,196.57-196.57,196.57,88.2,196.57,196.57S474.863,562.664,366.494,562.664Z" transform="translate(-146.798 -146.345)" fill="#33dce4" opacity="0.6"/>
        <path id="Path_210" data-name="Path 210" d="M351.2,131.1c-121.169,0-219.7,98.581-219.7,219.7s98.527,219.75,219.7,219.75,219.7-98.581,219.7-219.7S472.365,131.1,351.2,131.1Zm0,434.121c-118.211,0-214.372-96.161-214.372-214.371S232.985,136.478,351.2,136.478,565.567,232.639,565.567,350.85,469.407,565.221,351.2,565.221Z" transform="translate(-131.5 -131.1)" fill="#33dce4"/>
      </g>
    </g>
  </g>
</svg>
